<svg width="545" height="239" viewBox="0 0 545 239" fill="none" xmlns="http://www.w3.org/2000/svg">
<path d="M168.074 152.87C168.626 152.87 169.074 153.318 169.074 153.87V182.54C169.074 183.092 168.626 183.54 168.074 183.54H2.22088C1.69001 183.54 1.25167 183.125 1.22241 182.595L0.0138508 160.699C0.00230501 160.49 0.0567439 160.283 0.169483 160.106L100.061 3.65662C100.245 3.3689 100.563 3.19477 100.904 3.19477H129.457C130.229 3.19477 130.71 4.03246 130.321 4.69911L97.7993 60.3812L41.0621 151.341C40.6466 152.007 41.1255 152.87 41.9106 152.87H168.074ZM138.989 3.19477C139.541 3.19477 139.989 3.64249 139.989 4.19478V234.774C139.989 235.327 139.541 235.774 138.989 235.774H102.475C101.923 235.774 101.475 235.327 101.475 234.774V4.19477C101.475 3.64248 101.923 3.19477 102.475 3.19477H138.989Z" fill="white"/>
<path d="M349.735 99.9965V138.014C349.735 156.224 347.924 171.772 344.302 184.658C340.786 197.437 335.672 207.82 328.96 215.807C322.248 223.794 314.204 229.651 304.829 233.378C295.56 237.106 285.172 238.969 273.666 238.969C264.504 238.969 255.981 237.798 248.097 235.455C240.319 233.112 233.288 229.438 227.002 224.433C220.716 219.428 215.336 212.985 210.861 205.105C206.493 197.118 203.084 187.587 200.633 176.511C198.289 165.436 197.118 152.604 197.118 138.014V99.9965C197.118 81.6797 198.929 66.2383 202.551 53.6722C206.173 40.9996 211.341 30.7231 218.053 22.8426C224.765 14.8557 232.755 9.05186 242.024 5.43112C251.399 1.81037 261.84 0 273.346 0C282.615 0 291.139 1.17142 298.916 3.51425C306.8 5.75059 313.832 9.31809 320.011 14.2167C326.297 19.1154 331.624 25.505 335.992 33.3854C340.466 41.1593 343.876 50.5839 346.22 61.6592C348.563 72.6279 349.735 85.407 349.735 99.9965ZM311.221 143.445V94.2459C311.221 84.981 310.689 76.8343 309.623 69.8058C308.558 62.6708 306.96 56.654 304.829 51.7554C302.805 46.7502 300.248 42.7035 297.158 39.6152C294.068 36.4204 290.553 34.1308 286.611 32.7464C282.669 31.2555 278.247 30.5101 273.346 30.5101C267.38 30.5101 262.053 31.6815 257.366 34.0243C252.678 36.2607 248.736 39.8814 245.54 44.8866C242.344 49.8917 239.893 56.4943 238.188 64.6942C236.59 72.7876 235.791 82.6382 235.791 94.2459V143.445C235.791 152.817 236.324 161.07 237.389 168.205C238.455 175.34 240.053 181.463 242.184 186.575C244.315 191.58 246.871 195.733 249.855 199.034C252.944 202.229 256.46 204.572 260.402 206.063C264.45 207.554 268.872 208.299 273.666 208.299C279.739 208.299 285.119 207.128 289.807 204.785C294.495 202.442 298.437 198.715 301.633 193.603C304.829 188.385 307.226 181.623 308.824 173.317C310.422 165.01 311.221 155.053 311.221 143.445Z" fill="white"/>
<path d="M543.585 152.283C544.137 152.283 544.585 152.731 544.585 153.283V181.872C544.585 182.425 544.137 182.872 543.585 182.872H377.934C377.403 182.872 376.965 182.458 376.936 181.928L375.729 160.093C375.717 159.884 375.772 159.676 375.885 159.499L475.655 3.46131C475.839 3.1739 476.156 3 476.498 3H505.013C505.785 3 506.266 3.83822 505.876 4.50487L473.396 60.0366L416.73 150.753C416.314 151.419 416.793 152.283 417.578 152.283H543.585ZM514.535 3C515.087 3 515.535 3.44772 515.535 4V233.97C515.535 234.522 515.087 234.97 514.535 234.97H478.067C477.515 234.97 477.067 234.522 477.067 233.97V4C477.067 3.44772 477.515 3 478.067 3H514.535Z" fill="white"/>
</svg>
