<svg width="140" height="140" viewBox="0 0 140 140" fill="none" xmlns="http://www.w3.org/2000/svg">
<g clip-path="url(#clip0_510_4499)">
<path d="M79.9624 8.83071L81.8019 0.181641L84.9504 0.857349C85.5613 0.985734 86.0447 1.1952 86.4005 1.48576C86.7563 1.77631 86.998 2.10741 87.1255 2.49256C87.2531 2.87772 87.2665 3.28314 87.1792 3.70884C87.1054 4.06696 86.9711 4.35752 86.7899 4.57374C86.6086 4.78997 86.3871 4.95214 86.1387 5.0535C85.8903 5.15485 85.6217 5.20891 85.3465 5.22242L85.3264 5.30351C85.6083 5.37784 85.8701 5.53325 86.1051 5.76299C86.3401 5.99273 86.5146 6.28329 86.6287 6.63465C86.7429 6.98602 86.7496 7.38469 86.6556 7.83066C86.5616 8.26987 86.3736 8.64826 86.0917 8.95233C85.8097 9.2564 85.4338 9.46587 84.9638 9.58074C84.4939 9.69561 83.9233 9.67534 83.2587 9.53344L79.9624 8.82395V8.83071ZM81.4998 7.99283L83.3728 8.39825C83.9904 8.53339 84.4671 8.50637 84.7826 8.32393C85.0981 8.14148 85.2995 7.86444 85.3801 7.49956C85.4405 7.22928 85.4203 6.95899 85.3331 6.70223C85.2458 6.44546 85.0847 6.22247 84.8631 6.03327C84.6416 5.84408 84.3529 5.70893 84.0038 5.63461L82.0838 5.22242L81.493 7.99283H81.4998ZM82.3054 4.20211L84.0441 4.57374C84.3328 4.63456 84.608 4.63456 84.8699 4.57374C85.125 4.51293 85.3465 4.3913 85.5278 4.21562C85.709 4.03993 85.8299 3.81695 85.8903 3.53315C85.9641 3.17503 85.9037 2.85069 85.709 2.55338C85.5143 2.25607 85.1518 2.05335 84.6416 1.94524L82.8693 1.56684L82.3121 4.19535L82.3054 4.20211Z" fill="white"/>
<path d="M88.1867 10.8052L86.8574 10.3322L92.7853 3.06836L94.2287 3.58865L94.2555 12.9878L92.933 12.5148L93.0068 4.85899L92.9397 4.83872L88.18 10.8187L88.1867 10.8052ZM89.5629 7.62263L93.8662 9.16325L93.4902 10.2241L89.187 8.6835L89.5629 7.62263Z" fill="white"/>
<path d="M95.249 13.4727L99.2703 5.60742L100.452 6.21556L98.5318 9.9725L98.6258 10.0198L103.822 7.95889L105.306 8.72919L100.344 10.6347L101.298 16.5944L99.8812 15.8579L99.1495 11.0334L97.6792 11.6212L96.4306 14.0673L95.249 13.4592V13.4727Z" fill="white"/>
<path d="M102.781 17.6017L101.626 16.7909L109.239 11.3379L110.502 12.2163L108.085 21.2978L106.93 20.487L108.991 13.115L108.937 13.0745L102.788 17.5949L102.781 17.6017ZM104.936 14.8921L108.689 17.5139L108.051 18.4396L104.298 15.8178L104.936 14.8921Z" fill="white"/>
<path d="M108.89 22.0407L114.792 15.4863L117.114 17.6013C117.618 18.0608 117.96 18.5338 118.135 19.0135C118.309 19.4933 118.343 19.9595 118.229 20.419C118.115 20.8785 117.88 21.3109 117.517 21.7096C117.155 22.1083 116.759 22.3853 116.315 22.5407C115.872 22.6961 115.416 22.7029 114.926 22.5678C114.436 22.4326 113.946 22.1353 113.442 21.6758L111.683 20.0744L112.449 19.223L114.12 20.7433C114.436 21.0339 114.738 21.2231 115.02 21.3177C115.302 21.4055 115.57 21.4123 115.819 21.3177C116.067 21.2298 116.302 21.0609 116.524 20.8177C116.745 20.5677 116.893 20.3109 116.96 20.0474C117.027 19.7771 117.007 19.5068 116.893 19.2298C116.779 18.9527 116.564 18.6622 116.235 18.3648L115 17.2364L109.864 22.9461L108.884 22.0475L108.89 22.0407ZM114.765 22.0137L113.711 26.4396L112.59 25.4192L113.677 21.0204L114.765 22.0137Z" fill="white"/>
<path d="M124.834 25.8732L125.694 26.8935L121.283 30.6505C120.813 31.0491 120.303 31.2924 119.759 31.3802C119.209 31.4681 118.665 31.3937 118.121 31.1708C117.577 30.941 117.081 30.5626 116.624 30.0221C116.174 29.4815 115.879 28.9274 115.745 28.3463C115.61 27.7652 115.637 27.2179 115.812 26.6841C115.986 26.1502 116.309 25.6908 116.778 25.2921L121.189 21.5352L122.048 22.5555L117.718 26.2448C117.416 26.5016 117.201 26.7989 117.081 27.1368C116.96 27.4746 116.933 27.8192 117.007 28.1841C117.081 28.549 117.262 28.9004 117.55 29.2382C117.839 29.5828 118.155 29.8193 118.497 29.9545C118.839 30.0896 119.189 30.1234 119.531 30.0558C119.88 29.9883 120.202 29.8261 120.511 29.5693L124.841 25.88L124.834 25.8732Z" fill="white"/>
<path d="M128.037 34.5959C128.353 34.3391 128.52 34.008 128.527 33.6026C128.54 33.1971 128.406 32.785 128.138 32.3593C127.943 32.0552 127.728 31.8187 127.493 31.6565C127.258 31.4943 127.017 31.4065 126.775 31.3862C126.533 31.3727 126.305 31.4268 126.097 31.5619C125.922 31.6768 125.795 31.8119 125.721 31.9809C125.647 32.1498 125.607 32.3255 125.613 32.5147C125.613 32.7039 125.64 32.8998 125.681 33.0958C125.728 33.2917 125.775 33.4742 125.828 33.6431L126.104 34.4945C126.198 34.7715 126.271 35.0621 126.332 35.3797C126.392 35.6905 126.406 36.0081 126.385 36.3257C126.359 36.6432 126.271 36.9473 126.117 37.2311C125.963 37.5149 125.721 37.7649 125.385 37.9811C124.969 38.2514 124.526 38.3798 124.063 38.3731C123.599 38.3663 123.143 38.2176 122.693 37.9271C122.243 37.6365 121.834 37.1973 121.465 36.6162C121.109 36.0554 120.894 35.5216 120.807 34.9945C120.726 34.4742 120.773 33.9945 120.948 33.5553C121.122 33.1161 121.431 32.7377 121.861 32.4268L122.579 33.5553C122.324 33.7512 122.156 33.981 122.082 34.2512C122.002 34.5215 121.995 34.7986 122.062 35.0959C122.129 35.3932 122.257 35.6837 122.438 35.9743C122.639 36.2919 122.868 36.5419 123.13 36.7243C123.385 36.9068 123.653 37.0149 123.922 37.0419C124.19 37.0689 124.445 37.0081 124.687 36.8527C124.909 36.7108 125.05 36.5351 125.103 36.3189C125.164 36.1027 125.17 35.8594 125.13 35.5891C125.09 35.3189 125.016 35.0283 124.915 34.7175L124.593 33.6836C124.378 32.9809 124.311 32.3593 124.405 31.8052C124.499 31.2579 124.801 30.8119 125.318 30.4808C125.748 30.2037 126.191 30.0821 126.654 30.1091C127.117 30.1362 127.567 30.2916 127.997 30.5754C128.426 30.8592 128.802 31.2511 129.118 31.7511C129.44 32.2579 129.635 32.7579 129.702 33.2579C129.769 33.758 129.722 34.2175 129.561 34.6364C129.393 35.0553 129.118 35.3999 128.728 35.6635L128.037 34.5823V34.5959Z" fill="white"/>
<path d="M133.676 40.1172L134.253 41.6308L128.89 46.7324L128.93 46.827L136.308 46.9756L136.885 48.4892L128.688 51.6718L128.232 50.4893L134.166 48.1851L134.139 48.1108L127.285 47.9757L126.909 46.9891L131.904 42.2524L131.877 42.1781L125.942 44.4823L125.486 43.2998L133.683 40.1172H133.676Z" fill="white"/>
<path d="M129.064 53.361L137.637 51.4082L138.852 56.8139L137.737 57.0706L136.811 52.9623L134.2 53.557L135.059 57.3815L133.951 57.6315L133.092 53.807L130.467 54.4016L131.4 58.5572L130.286 58.814L129.057 53.3542L129.064 53.361Z" fill="white"/>
<path d="M130.635 61.1036L130.5 59.6914L139.55 62.0091L139.698 63.5429L131.252 67.5634L131.118 66.1512L138.04 62.9618V62.8943L130.635 61.0969V61.1036ZM134.085 61.009L134.528 65.5836L133.421 65.6917L132.978 61.1172L134.085 61.009Z" fill="white"/>
<path d="M138.859 67.3281L140 67.3484L139.893 74.1933L138.751 74.173L138.798 71.4162L131.152 71.2878L131.172 69.9566L138.818 70.085L138.865 67.3281H138.859Z" fill="white"/>
<path d="M128.56 87.6992L136.824 90.6994L135.73 93.7468C135.515 94.3347 135.247 94.7874 134.918 95.105C134.589 95.4226 134.22 95.6185 133.83 95.6928C133.434 95.7672 133.031 95.7266 132.622 95.578C132.279 95.4496 132.011 95.2807 131.823 95.0712C131.635 94.8617 131.507 94.6185 131.44 94.3549C131.373 94.0914 131.36 93.8211 131.387 93.5441L131.306 93.5171C131.192 93.7874 131.011 94.0239 130.749 94.2333C130.494 94.436 130.185 94.5712 129.822 94.6387C129.46 94.7063 129.07 94.659 128.641 94.5036C128.218 94.3482 127.875 94.1117 127.614 93.7941C127.352 93.4765 127.197 93.0711 127.15 92.5846C127.103 92.0981 127.197 91.5372 127.426 90.8886L128.567 87.6992H128.56ZM129.178 89.3412L128.527 91.1521C128.312 91.7535 128.272 92.2265 128.413 92.5711C128.554 92.9157 128.795 93.1522 129.138 93.2738C129.399 93.3684 129.661 93.3887 129.93 93.3346C130.198 93.2806 130.433 93.1522 130.655 92.9562C130.876 92.7603 131.044 92.49 131.158 92.1521L131.823 90.2939L129.178 89.3344V89.3412ZM132.796 90.6588L132.192 92.3413C132.091 92.6251 132.051 92.8954 132.078 93.1589C132.105 93.4225 132.192 93.659 132.34 93.8617C132.488 94.0644 132.696 94.2198 132.957 94.3144C133.3 94.436 133.629 94.4225 133.944 94.2671C134.26 94.1117 134.508 93.7806 134.69 93.2806L135.307 91.5643L132.79 90.6521L132.796 90.6588Z" fill="white"/>
<path d="M125.506 95.6474L126.15 94.3906L132.501 101.283L131.796 102.655L122.539 101.411L123.183 100.154L130.709 101.263L130.742 101.202L125.499 95.6474H125.506ZM128.453 97.4516L126.352 101.533L125.358 101.019L127.459 96.938L128.453 97.4516Z" fill="white"/>
<path d="M121.934 102.309L129.138 107.371L128.379 108.465L124.935 106.046L124.875 106.134L126.204 111.594L125.251 112.972L124.036 107.769L118.041 107.918L118.954 106.6L123.801 106.519L123.418 104.972L121.176 103.397L121.934 102.303V102.309Z" fill="white"/>
<path d="M116.859 109.276L117.812 108.229L122.163 116.546L121.129 117.682L112.509 114.06L113.455 113.013L120.437 116.053L120.484 115.999L116.859 109.269V109.276ZM119.242 111.79L116.161 115.182L115.335 114.425L118.417 111.033L119.242 111.79Z" fill="white"/>
<path d="M110.924 120.641L106.708 118.999L107.863 118.02L112.046 119.689L110.924 120.641ZM111.683 114.776L117.349 121.533L114.952 123.567C114.436 124.006 113.925 124.284 113.429 124.398C112.932 124.513 112.469 124.479 112.032 124.304C111.596 124.128 111.2 123.838 110.851 123.419C110.502 123.006 110.287 122.567 110.193 122.108C110.099 121.648 110.152 121.189 110.354 120.723C110.549 120.256 110.911 119.804 111.435 119.358L113.247 117.817L113.986 118.695L112.267 120.162C111.938 120.439 111.71 120.716 111.582 120.986C111.455 121.256 111.421 121.52 111.475 121.783C111.529 122.047 111.663 122.304 111.878 122.554C112.093 122.81 112.328 122.986 112.583 123.094C112.838 123.196 113.106 123.216 113.402 123.135C113.69 123.06 114.006 122.878 114.342 122.594L115.617 121.513L110.683 115.628L111.697 114.77L111.683 114.776Z" fill="white"/>
<path d="M105.769 130.176L104.648 130.899L101.539 125.993C101.21 125.473 101.036 124.932 101.029 124.371C101.022 123.81 101.163 123.277 101.459 122.763C101.754 122.249 102.197 121.804 102.795 121.425C103.385 121.047 103.976 120.831 104.56 120.776C105.144 120.722 105.688 120.817 106.185 121.06C106.682 121.304 107.098 121.689 107.427 122.209L110.535 127.115L109.414 127.831L106.366 123.02C106.151 122.682 105.889 122.432 105.574 122.263C105.258 122.094 104.916 122.027 104.554 122.054C104.191 122.081 103.815 122.209 103.439 122.452C103.063 122.695 102.788 122.979 102.607 123.304C102.425 123.628 102.345 123.966 102.365 124.324C102.385 124.682 102.499 125.027 102.714 125.365L105.762 130.176H105.769Z" fill="white"/>
<path d="M96.7663 132.189C96.9811 132.54 97.2832 132.749 97.6793 132.81C98.0754 132.878 98.4983 132.803 98.9548 132.587C99.2838 132.432 99.5389 132.249 99.7336 132.033C99.9283 131.817 100.042 131.594 100.096 131.351C100.143 131.107 100.116 130.878 100.016 130.648C99.9283 130.459 99.8074 130.317 99.653 130.216C99.4986 130.121 99.3308 130.06 99.1361 130.033C98.9481 130.006 98.7534 130.006 98.5588 130.026C98.3641 130.047 98.1761 130.067 98.0016 130.101L97.1288 130.263C96.8469 130.317 96.5448 130.357 96.2292 130.371C95.9137 130.391 95.5982 130.364 95.2894 130.297C94.9806 130.229 94.6986 130.101 94.4368 129.905C94.175 129.716 93.9601 129.438 93.799 129.074C93.5909 128.621 93.517 128.161 93.5909 127.702C93.658 127.242 93.8661 126.803 94.2152 126.398C94.5643 125.986 95.0477 125.641 95.672 125.35C96.2695 125.073 96.8267 124.925 97.3504 124.911C97.874 124.898 98.3372 125.013 98.7467 125.249C99.1562 125.486 99.4852 125.837 99.7336 126.31L98.5252 126.871C98.3708 126.594 98.1627 126.398 97.9076 126.283C97.6525 126.168 97.3772 126.121 97.0751 126.155C96.773 126.182 96.4709 126.269 96.1621 126.411C95.8197 126.573 95.5445 126.763 95.3296 126.999C95.1148 127.229 94.9738 127.479 94.9134 127.749C94.853 128.013 94.8798 128.276 95.0007 128.54C95.1081 128.776 95.2692 128.938 95.4706 129.033C95.672 129.121 95.9137 129.161 96.1822 129.155C96.4575 129.148 96.7529 129.114 97.0751 129.06L98.1358 128.878C98.8541 128.756 99.4785 128.776 100.009 128.938C100.539 129.101 100.929 129.465 101.19 130.026C101.405 130.486 101.466 130.952 101.372 131.412C101.284 131.871 101.07 132.297 100.734 132.689C100.398 133.081 99.9619 133.398 99.4248 133.648C98.8877 133.898 98.3641 134.027 97.8606 134.033C97.3571 134.033 96.914 133.925 96.5179 133.702C96.1285 133.479 95.8264 133.155 95.6183 132.729L96.7797 132.189H96.7663Z" fill="white"/>
<path d="M90.5697 137.081L89.0055 137.453L84.7023 131.412L84.6016 131.439L83.4603 138.777L81.8961 139.149L79.8687 130.54L81.0972 130.25L82.5674 136.48L82.648 136.46L83.702 129.642L84.7224 129.398L88.7101 135.014L88.7907 134.993L87.3205 128.763L88.549 128.473L90.5764 137.081H90.5697Z" fill="white"/>
<path d="M78.123 130.695L78.895 139.507L73.4035 139.993L73.3028 138.851L77.4718 138.479L77.2368 135.797L73.3565 136.142L73.2558 135L77.1361 134.655L76.9012 131.959L72.6852 132.331L72.5845 131.189L78.123 130.695Z" fill="white"/>
<path d="M70.3021 131.222L71.7052 131.276L68.2277 139.999L66.697 139.945L63.8506 130.992L65.2604 131.046L67.4825 138.371H67.5496L70.2954 131.229L70.3021 131.222ZM69.9396 134.675L65.3745 134.513L65.4148 133.391L69.9799 133.56L69.9396 134.682V134.675Z" fill="white"/>
<path d="M63.0787 138.601L62.9108 139.737L56.1841 138.716L56.3519 137.581L59.0641 137.993L60.1987 130.385L61.5078 130.581L60.3732 138.189L63.0787 138.601Z" fill="white"/>
<path d="M44.409 125.607L40.3407 133.445L37.4875 131.945C36.937 131.655 36.5275 131.323 36.259 130.952C35.9905 130.58 35.8495 130.188 35.8293 129.783C35.8092 129.377 35.9032 128.979 36.1046 128.594C36.2724 128.269 36.4738 128.026 36.7088 127.864C36.9437 127.702 37.1989 127.607 37.4607 127.58C37.7292 127.553 37.9977 127.566 38.2663 127.634L38.3066 127.56C38.0514 127.411 37.8433 127.195 37.6755 126.911C37.5077 126.627 37.4204 126.303 37.4003 125.931C37.3868 125.56 37.4808 125.174 37.6956 124.769C37.9038 124.37 38.1857 124.06 38.5348 123.837C38.8839 123.614 39.3068 123.519 39.7902 123.533C40.2736 123.553 40.8173 123.722 41.4215 124.039L44.409 125.607ZM40.9248 129.438L39.3471 128.607C39.0853 128.465 38.8168 128.398 38.5549 128.384C38.2931 128.377 38.0447 128.431 37.8232 128.546C37.6017 128.668 37.4271 128.85 37.2928 129.107C37.125 129.431 37.0982 129.763 37.2056 130.1C37.3197 130.438 37.6084 130.729 38.0716 130.979L39.6761 131.823L40.9113 129.438H40.9248ZM42.7105 126.006L41.012 125.114C40.4481 124.816 39.9916 124.715 39.6291 124.81C39.2733 124.904 39.0115 125.114 38.8369 125.438C38.7094 125.688 38.6556 125.945 38.6691 126.215C38.6825 126.485 38.7765 126.742 38.9443 126.985C39.1122 127.229 39.3538 127.431 39.6626 127.6L41.4014 128.512L42.7038 125.999L42.7105 126.006Z" fill="white"/>
<path d="M36.9973 121.493L38.152 122.31L30.5122 127.723L29.2568 126.838L31.7206 117.77L32.8753 118.587L30.774 125.946L30.8278 125.986L36.9973 121.499V121.493ZM34.8289 124.189L31.0896 121.547L31.7341 120.628L35.4734 123.27L34.8356 124.189H34.8289Z" fill="white"/>
<path d="M30.9081 117.025L24.9601 123.539L23.9866 122.633L26.8264 119.525L26.7458 119.451L21.1939 120.052L19.9653 118.917L25.2554 118.397L25.9066 112.396L27.0815 113.484L26.5176 118.329L28.0885 118.154L29.9414 116.126L30.9148 117.032L30.9081 117.025Z" fill="white"/>
<path d="M24.7253 111.045L25.6316 112.133L16.8639 115.37L15.8838 114.188L20.5966 106.072L21.5029 107.16L17.5823 113.721L17.6293 113.775L24.7454 111.052L24.7253 111.045ZM21.9325 113.086L19.0055 109.559L19.8581 108.836L22.7851 112.363L21.9325 113.086Z" fill="white"/>
<path d="M19.9921 105.133L12.5806 109.883L10.8955 107.221C10.533 106.64 10.3249 106.099 10.2779 105.592C10.2309 105.085 10.3249 104.619 10.5531 104.207C10.7814 103.795 11.1238 103.443 11.5803 103.146C12.0368 102.856 12.4933 102.693 12.9565 102.666C13.4197 102.639 13.8695 102.754 14.2992 103.011C14.7288 103.268 15.1316 103.687 15.4942 104.268L16.7697 106.281L15.8097 106.896L14.6013 104.984C14.373 104.619 14.1314 104.356 13.883 104.194C13.6346 104.031 13.3795 103.957 13.1109 103.977C12.8424 103.998 12.5739 104.099 12.2986 104.275C12.0166 104.457 11.8085 104.667 11.6743 104.903C11.54 105.14 11.4863 105.41 11.5199 105.714C11.5534 106.011 11.6877 106.349 11.9227 106.721L12.8155 108.133L19.2671 103.998L19.9787 105.126L19.9921 105.133ZM14.3193 103.592L16.4944 99.6055L17.3068 100.889L15.1048 104.842L14.3193 103.599V103.592Z" fill="white"/>
<path d="M5.62557 97.1877L5.06836 95.9715L10.3115 93.5254C10.8687 93.2686 11.4259 93.1673 11.9764 93.2281C12.5269 93.2889 13.0371 93.5051 13.5003 93.87C13.9635 94.2349 14.3462 94.7349 14.6416 95.3836C14.937 96.0255 15.0712 96.6404 15.0444 97.235C15.0175 97.8297 14.8497 98.3567 14.5409 98.8229C14.2321 99.2892 13.8024 99.6473 13.2385 99.9108L7.99538 102.357L7.43817 101.147L12.5873 98.7486C12.9498 98.5797 13.2318 98.35 13.4399 98.0594C13.648 97.7688 13.7621 97.4377 13.7823 97.0661C13.8091 96.6945 13.7286 96.3093 13.5406 95.9039C13.3526 95.4985 13.1109 95.1809 12.8156 94.9579C12.5202 94.7349 12.1979 94.6133 11.8421 94.5863C11.4863 94.5592 11.1305 94.6268 10.768 94.7957L5.61885 97.1945L5.62557 97.1877Z" fill="white"/>
<path d="M4.84683 87.923C4.47089 88.0852 4.22921 88.3622 4.10837 88.7474C3.99424 89.1325 4.00767 89.565 4.15536 90.0515C4.26277 90.3961 4.41047 90.6799 4.59173 90.9029C4.77299 91.1259 4.98781 91.2745 5.21607 91.3556C5.44432 91.4367 5.67929 91.4367 5.91425 91.3624C6.11565 91.3016 6.27006 91.2002 6.38419 91.0583C6.49832 90.9164 6.58559 90.7542 6.63258 90.5718C6.67958 90.3826 6.71314 90.1934 6.71986 89.9975C6.72657 89.8015 6.72657 89.6123 6.71986 89.4299L6.67958 88.5379C6.65944 88.2474 6.66615 87.9433 6.693 87.6257C6.71986 87.3081 6.78699 86.9973 6.8944 86.7C7.00182 86.4027 7.16965 86.1324 7.3979 85.9027C7.61944 85.6662 7.92154 85.4905 8.29749 85.3756C8.77414 85.2269 9.23064 85.2202 9.68044 85.3486C10.1235 85.477 10.5263 85.7472 10.8821 86.1459C11.2379 86.5446 11.5199 87.0784 11.7213 87.7338C11.916 88.369 11.9831 88.9433 11.9227 89.4704C11.8623 89.9975 11.6944 90.4434 11.4058 90.8218C11.1171 91.2002 10.7277 91.4772 10.2309 91.6597L9.84156 90.3826C10.1369 90.261 10.3585 90.0853 10.5062 89.8488C10.6539 89.6123 10.7344 89.342 10.7479 89.0379C10.7613 88.7339 10.7143 88.4163 10.6136 88.0919C10.4995 87.7338 10.3451 87.4298 10.1504 87.1797C9.94897 86.9297 9.72072 86.7608 9.47232 86.6595C9.22393 86.5581 8.9554 86.5513 8.68015 86.6392C8.43176 86.7135 8.2505 86.8486 8.13637 87.0378C8.02224 87.227 7.9484 87.4635 7.92154 87.7338C7.89469 88.0041 7.88126 88.3082 7.89469 88.6325L7.92826 89.7137C7.95511 90.4434 7.8477 91.0651 7.61273 91.5719C7.37776 92.0786 6.96825 92.4232 6.38419 92.5989C5.90083 92.7476 5.43761 92.7476 4.99453 92.5989C4.55145 92.4435 4.16207 92.18 3.81969 91.7881C3.47731 91.3962 3.2222 90.9232 3.04766 90.3556C2.87311 89.7812 2.8194 89.2474 2.87982 88.7474C2.94696 88.2474 3.11479 87.8149 3.38332 87.4568C3.65186 87.0987 4.01438 86.8419 4.46417 86.6865L4.84012 87.9163L4.84683 87.923Z" fill="white"/>
<path d="M0.879448 81.0916L0.718328 79.4767L7.24369 75.9968L7.23027 75.8954L0.16112 73.7737L0 72.1588L8.74748 71.2871L8.86832 72.5507L2.53764 73.1791V73.2602L9.11672 75.2265L9.21742 76.2738L3.14856 79.497V79.578L9.49266 78.9496L9.62022 80.2132L0.872734 81.0849L0.879448 81.0916Z" fill="white"/>
<path d="M8.82792 69.5313L0.046875 69.1326L0.295269 63.5918L1.43654 63.6459L1.24856 67.8555L3.92047 67.9771L4.09502 64.058L5.22957 64.1121L5.05503 68.0312L7.74036 68.1528L7.92834 63.8959L9.0696 63.9499L8.82121 69.5448L8.82792 69.5313Z" fill="white"/>
<path d="M9.34492 61.6451L9.10996 63.0438L0.986816 58.4084L1.24864 56.8881L10.4459 55.2461L10.2109 56.6448L2.70543 57.8814L2.692 57.9489L9.35835 61.6451H9.34492ZM5.99497 60.8274L6.767 56.3002L7.86799 56.4894L7.09596 61.0166L5.99497 60.8274Z" fill="white"/>
<path d="M3.03422 53.4684L1.93994 53.1441L3.84653 46.5762L4.9408 46.9005L4.16877 49.5493L11.5065 51.7048L11.1372 52.9819L3.79954 50.8264L3.03422 53.4684Z" fill="white"/>
<path d="M18.3475 36.5971L11.1709 31.4888L13.0305 28.8468C13.393 28.3332 13.769 27.9683 14.1785 27.7521C14.588 27.5359 14.9841 27.4413 15.3869 27.4818C15.7897 27.5156 16.1656 27.6643 16.5214 27.9143C16.8235 28.1237 17.0316 28.3602 17.1592 28.617C17.2868 28.8738 17.3472 29.1373 17.3405 29.4076C17.3405 29.6779 17.28 29.9482 17.1793 30.2049L17.2465 30.2522C17.4277 30.0225 17.6694 29.84 17.9715 29.7117C18.2736 29.5833 18.6093 29.536 18.9718 29.5698C19.3343 29.6035 19.7036 29.7522 20.0795 30.0157C20.4487 30.2793 20.7173 30.5968 20.8851 30.9752C21.0529 31.3536 21.0999 31.7861 21.0127 32.2658C20.9321 32.7456 20.6904 33.2659 20.301 33.8267L18.3542 36.5971H18.3475ZM15.0445 32.6105L16.0716 31.1509C16.2462 30.9077 16.3536 30.6509 16.3939 30.3874C16.4409 30.1238 16.414 29.8738 16.3267 29.6373C16.2395 29.4008 16.0784 29.1981 15.8501 29.036C15.5547 28.8265 15.2325 28.7522 14.8834 28.8197C14.5343 28.8873 14.212 29.1373 13.9032 29.5698L12.8559 31.0563L15.0378 32.6105H15.0445ZM18.1863 34.847L19.294 33.2726C19.6633 32.7524 19.8244 32.3064 19.7841 31.9347C19.7438 31.5631 19.5693 31.2725 19.2672 31.0631C19.0389 30.9009 18.7905 30.8131 18.522 30.7928C18.2535 30.7725 17.9849 30.8333 17.7231 30.9617C17.4613 31.0901 17.2263 31.3063 17.0249 31.5969L15.8904 33.2118L18.1863 34.847Z" fill="white"/>
<path d="M23.3961 29.7453L22.4428 30.7859L18.1328 22.4477L19.1734 21.3125L27.7732 24.9748L26.8199 26.0154L19.8514 22.941L19.8044 22.995L23.3961 29.7453ZM21.0263 27.2182L24.1278 23.8396L24.9469 24.6032L21.8453 27.9817L21.0263 27.2182Z" fill="white"/>
<path d="M28.599 24.2721L22.98 17.4745L24.0004 16.6231L26.6857 19.8732L26.7663 19.8056L26.914 14.1838L28.1962 13.1094L28.0016 18.4542L33.8287 19.9002L32.6002 20.9273L27.9076 19.7178L27.874 21.3125L29.6195 23.4274L28.599 24.2788V24.2721Z" fill="white"/>
<path d="M35.3258 18.893L34.1375 19.6498L32.1235 10.4669L33.4192 9.64258L40.7837 15.4266L39.5955 16.1834L33.6609 11.3927L33.6005 11.4264L35.3325 18.8863L35.3258 18.893ZM33.6877 15.8388L37.5479 13.386L38.1454 14.3387L34.2852 16.7916L33.6877 15.8388Z" fill="white"/>
<path d="M41.7569 14.9737L38.0713 6.94625L40.9177 5.62186C41.5354 5.33806 42.0993 5.20292 42.6028 5.22995C43.113 5.25698 43.5494 5.40563 43.9253 5.68943C44.3013 5.97323 44.6034 6.36514 44.8316 6.85841C45.0599 7.35167 45.1539 7.83143 45.1203 8.29766C45.0867 8.7639 44.9122 9.19636 44.5967 9.59502C44.2811 9.99369 43.8179 10.3315 43.2003 10.6221L41.0453 11.6221L40.5687 10.5816L42.6162 9.62881C43.0056 9.44637 43.2943 9.24366 43.489 9.02067C43.6836 8.79093 43.7911 8.54768 43.8045 8.27739C43.8179 8.00711 43.7575 7.72331 43.6232 7.426C43.4822 7.12193 43.3077 6.88543 43.0862 6.71651C42.8713 6.54758 42.6095 6.45974 42.3074 6.45974C42.0053 6.45974 41.6562 6.54758 41.2601 6.73002L39.7496 7.43276L42.9586 14.4263L41.7569 14.9872V14.9737ZM44.0327 9.5207L47.6647 12.2303L46.2951 12.8655L42.7035 10.1423L44.0327 9.5207Z" fill="white"/>
<path d="M51.5318 1.70246L52.8006 1.31055L54.4991 6.87163C54.6804 7.46625 54.7005 8.02709 54.5662 8.56765C54.432 9.10822 54.15 9.58797 53.7271 10.0002C53.3041 10.4123 52.7603 10.7299 52.089 10.9326C51.4177 11.1421 50.7933 11.1894 50.216 11.088C49.6386 10.9799 49.1419 10.7434 48.7256 10.3718C48.3094 10.0002 48.014 9.5204 47.8328 8.92578L46.1343 3.3647L47.4031 2.97279L49.068 8.43251C49.1821 8.81766 49.3701 9.12849 49.6319 9.37175C49.8937 9.615 50.2026 9.77717 50.5584 9.8515C50.9209 9.92583 51.3103 9.8988 51.7332 9.76366C52.1561 9.62852 52.5052 9.43256 52.7603 9.16903C53.0154 8.90551 53.1833 8.59468 53.2638 8.25007C53.3377 7.8987 53.3176 7.53382 53.2034 7.15542L51.5385 1.6957L51.5318 1.70246Z" fill="white"/>
<path d="M60.7692 2.18182C60.6551 1.78315 60.4201 1.50611 60.0576 1.33718C59.6951 1.16826 59.2654 1.12771 58.7686 1.2088C58.4128 1.26961 58.1175 1.37773 57.8758 1.53314C57.6341 1.68855 57.4595 1.87775 57.3454 2.09398C57.2313 2.3102 57.1977 2.5467 57.238 2.78996C57.2716 2.99943 57.3521 3.16835 57.473 3.3035C57.5938 3.43864 57.7415 3.53999 57.9228 3.61432C58.0973 3.68865 58.2853 3.74271 58.48 3.78325C58.6747 3.81703 58.8626 3.84406 59.0372 3.85758L59.9233 3.93866C60.212 3.95893 60.5074 4.00623 60.8229 4.0738C61.1317 4.14137 61.4271 4.24949 61.7091 4.39814C61.9911 4.5468 62.226 4.74951 62.4274 5.00628C62.6288 5.26305 62.7631 5.58739 62.8235 5.9793C62.9041 6.47257 62.8504 6.93205 62.6624 7.35774C62.4744 7.78344 62.1589 8.14832 61.7158 8.44563C61.2727 8.7497 60.7155 8.95242 60.0375 9.06729C59.3863 9.1754 58.8089 9.16864 58.2987 9.0335C57.7885 8.90512 57.3723 8.67538 57.0366 8.33752C56.7009 7.99967 56.4861 7.57397 56.3653 7.04692L57.6811 6.83069C57.7616 7.14152 57.9026 7.38477 58.1175 7.56721C58.3323 7.7429 58.5874 7.86453 58.8828 7.91858C59.1782 7.97264 59.5004 7.97264 59.8361 7.91858C60.2053 7.85777 60.5275 7.7429 60.7961 7.58073C61.0646 7.4118 61.266 7.20909 61.4003 6.97259C61.5345 6.73609 61.5748 6.47257 61.5278 6.18877C61.4876 5.932 61.3801 5.72929 61.2056 5.58739C61.031 5.44549 60.8162 5.34413 60.5477 5.27656C60.2859 5.20899 59.9905 5.16169 59.6615 5.12791L58.5874 5.01979C57.8623 4.94547 57.2649 4.75627 56.8016 4.4522C56.3384 4.14813 56.0497 3.69541 55.9558 3.08727C55.8752 2.58724 55.9356 2.12101 56.1437 1.70207C56.3518 1.28313 56.6741 0.931759 57.1037 0.641204C57.5334 0.357407 58.0369 0.161452 58.621 0.0668524C59.205 -0.0277467 59.7421 -0.0142326 60.2254 0.120909C60.7088 0.256051 61.1116 0.479034 61.4271 0.796617C61.7427 1.1142 61.9508 1.50611 62.038 1.97235L60.7759 2.18182H60.7692Z" fill="white"/>
<circle cx="70.4" cy="70.4" r="1.4" fill="white"/>
</g>
<defs>
<clipPath id="clip0_510_4499">
<rect width="140" height="140" fill="white"/>
</clipPath>
</defs>
</svg>
