<svg width="19" height="19" viewBox="0 0 19 19" fill="none" xmlns="http://www.w3.org/2000/svg">
<path d="M4.37349 16.6257C4.01724 16.6257 3.70058 16.5168 3.4235 16.2991C3.14641 16.0814 2.95509 15.801 2.84954 15.4579L0.830787 8.13503C0.764814 7.88433 0.830787 8.13503 0.57835 7.12565H5.34328L8.82662 1.94023C8.89259 1.83468 8.98495 1.74891 9.1037 1.68294C9.22245 1.61697 9.3478 1.58398 9.47974 1.58398C9.61169 1.58398 9.73704 1.61697 9.85579 1.68294C9.97453 1.74891 10.0669 1.83468 10.1329 1.94023L13.6162 7.12565H17.4162C17.6801 7.12565 18.2851 7.12565 18.4721 7.12565C18.1683 8.13503 18.2343 7.88433 18.1683 8.13503L16.1495 15.4579C16.044 15.801 15.8527 16.0814 15.5756 16.2991C15.2985 16.5168 14.9818 16.6257 14.6256 16.6257H4.37349ZM4.3537 15.0423H14.6454L16.387 8.70898H2.61204L4.3537 15.0423ZM7.26308 7.12565H11.7162L9.47974 3.80065L7.26308 7.12565Z" fill="white"/>
</svg>
