<svg width="24" height="24" viewBox="0 0 24 24" fill="none" xmlns="http://www.w3.org/2000/svg">
<path d="M7.37398 19.6257C7.01773 19.6257 6.70107 19.5168 6.42398 19.2991C6.1469 19.0814 5.95558 18.801 5.85002 18.4579L3.83127 11.135C3.7653 10.8843 3.83127 11.135 3.57884 10.1257H8.34377L11.8271 4.94023C11.8931 4.83468 11.9854 4.74891 12.1042 4.68294C12.2229 4.61697 12.3483 4.58398 12.4802 4.58398C12.6122 4.58398 12.7375 4.61697 12.8563 4.68294C12.975 4.74891 13.0674 4.83468 13.1334 4.94023L16.6167 10.1257H20.4167C20.6806 10.1257 21.2856 10.1257 21.4726 10.1257C21.1688 11.135 21.2348 10.8843 21.1688 11.135L19.15 18.4579C19.0445 18.801 18.8531 19.0814 18.5761 19.2991C18.299 19.5168 17.9823 19.6257 17.6261 19.6257H7.37398ZM7.35419 18.0423H17.6459L19.3875 11.709H5.61252L7.35419 18.0423ZM10.2636 10.1257H14.7167L12.4802 6.80065L10.2636 10.1257Z" fill="white"/>
</svg>
