<svg width="119" height="38" viewBox="0 0 119 38" fill="none" xmlns="http://www.w3.org/2000/svg">
<path d="M36.7206 1.53632C36.6946 1.49339 36.6821 1.44362 36.6848 1.39352V1.17931C36.6799 1.1526 36.6675 1.12783 36.649 1.1079L36.3987 0.750888L36.649 1.0008H36.5775L36.3987 0.822291H36.1125C36.1483 0.822291 36.1483 0.857993 36.1125 0.857993H35.8264L35.2183 0.78659H35.1825L35.3256 0.715186C35.3613 0.679485 35.3613 0.679485 35.3256 0.643783H34.8963L34.7175 0.715186H34.1094C33.8948 0.679485 33.7875 0.78659 33.859 0.893695H33.8948C33.8233 0.929396 33.716 0.929396 33.6802 1.0008L33.5729 1.1079H33.394C33.4656 1.0008 33.4298 0.965098 33.2509 0.965098L32.8933 0.893695L32.6071 0.715186L32.2494 0.822291H32.2136C32.1528 0.853603 32.0853 0.86994 32.0169 0.86994C31.9485 0.86994 31.881 0.853603 31.8202 0.822291L31.3909 0.750888H31.1763C31.1405 0.78659 31.1405 0.78659 31.1763 0.822291C31.2121 0.857993 31.2121 0.893695 31.1406 0.929396H31.069L31.1406 1.0008H30.8544V1.0365C30.8474 0.987796 30.8354 0.93994 30.8186 0.893695L30.6755 0.822291H29.674L29.4952 0.750888C29.3498 0.684331 29.1888 0.659602 29.0301 0.679485H28.6367C28.5284 0.655462 28.4151 0.66802 28.3148 0.715186H28.2075L28.3505 0.78659C28.3629 0.793582 28.373 0.804114 28.3793 0.816836C28.3857 0.829557 28.3881 0.843889 28.3863 0.857993H28.279L27.9928 0.78659C27.8886 0.781521 27.7886 0.744075 27.7067 0.679485C27.6709 0.643783 27.6709 0.608081 27.7424 0.608081H26.6694L26.419 0.679485C26.3771 0.677977 26.3355 0.686993 26.298 0.705706C26.2605 0.72442 26.2283 0.752231 26.2044 0.78659H25.5247L25.3459 0.750888L25.2386 0.679485H25.0955C25.0597 0.715186 25.1313 0.750888 25.167 0.78659C25.2028 0.822291 25.2028 0.822291 25.1313 0.857993H25.024C25.0597 0.893695 25.0597 0.929396 25.024 0.929396H24.8451C24.7378 0.929396 24.6663 0.893695 24.5947 0.857993C24.5121 0.78018 24.4149 0.719506 24.3086 0.679485H24.0582L24.2013 0.750888C24.237 0.750888 24.237 0.750888 24.2013 0.78659H24.1655C24.094 0.78659 24.0224 0.750888 24.0224 0.715186H23.7363V0.78659C23.6077 0.798257 23.4795 0.759884 23.3786 0.679485V0.608081H23.3428L23.164 0.78659H22.9851C22.9493 0.750888 22.9493 0.750888 23.0209 0.715186L23.3428 0.608081H22.8063C22.7497 0.568032 22.6834 0.543636 22.6143 0.537366C22.5452 0.531096 22.4757 0.543175 22.4128 0.57238H21.0178V0.679485H21.0893C21.2682 0.715186 21.2682 0.715186 21.1966 0.750888C21.1251 0.78659 21.0893 0.857993 21.0893 0.929396H20.5886C20.4812 0.929396 20.4097 0.857993 20.517 0.822291C20.6243 0.78659 20.7316 0.715186 20.6959 0.608081V0.536678H19.8016L19.4439 0.715186L19.3366 0.857993H19.1578C19.1578 0.78659 19.1578 0.715186 19.2293 0.643783C19.3008 0.57238 19.2293 0.608081 19.2293 0.57238H18.8001L18.9789 0.715186H18.8358C18.6928 0.715186 18.6928 0.715186 18.657 0.78659H18.4066C18.3926 0.761818 18.3715 0.741788 18.346 0.729066C18.3205 0.716344 18.2918 0.711511 18.2635 0.715186H17.8701V0.78659C17.8701 0.78659 17.8701 0.822291 17.8343 0.857993H17.6912C17.6523 0.852248 17.6127 0.855718 17.5754 0.868123C17.5381 0.880528 17.5043 0.901518 17.4766 0.929396H17.2262C17.3335 0.893695 17.3335 0.822291 17.2262 0.78659C17.1339 0.776637 17.0467 0.739334 16.9758 0.679485H16.8685C16.797 0.679485 16.7612 0.643783 16.797 0.608081C16.8328 0.57238 16.7612 0.500977 16.6897 0.500977H16.5108C16.4035 0.536678 16.4035 0.608081 16.5108 0.679485C16.6181 0.750888 16.5824 0.715186 16.5466 0.750888C16.5108 0.78659 16.5466 0.78659 16.5466 0.78659L16.7254 0.715186H16.5108L16.2247 0.643783C16.1531 0.608081 16.1174 0.57238 16.1889 0.536678H16.2247L16.0458 0.643783H15.867C15.7954 0.643783 15.7597 0.679485 15.7954 0.715186H15.402L15.3304 0.78659C15.2882 0.827286 15.2373 0.858028 15.1816 0.876561C15.1259 0.895094 15.0668 0.900949 15.0085 0.893695H15.0443C15.0801 0.857993 15.0801 0.822291 15.0085 0.822291C14.937 0.822291 14.6508 0.822291 14.6866 0.929396C14.7224 1.0365 14.7224 1.0008 14.6866 1.0365L14.615 1.1079L14.4362 1.17931H13.1485L12.755 1.0008H12.612L12.5046 0.78659V0.715186H12.3258C12.2543 0.715186 12.2543 0.750888 12.2543 0.78659C12.1599 0.766163 12.062 0.768461 11.9687 0.793295C11.8754 0.818128 11.7894 0.864782 11.7177 0.929396L11.6462 1.0008H10.6089C10.7519 0.965098 10.7877 0.929396 10.6804 0.893695H10.5731V1.0365H10.3227L10.5731 0.965098C10.5305 0.939651 10.483 0.923335 10.4338 0.917188C10.3845 0.911042 10.3345 0.915199 10.2869 0.929396L9.92924 0.965098C9.86487 0.927648 9.79293 0.905009 9.71867 0.898833C9.64441 0.892657 9.56971 0.903098 9.50001 0.929396C9.42847 0.929396 9.3927 0.929396 9.3927 0.857993C9.3927 0.78659 9.3927 0.78659 9.28539 0.78659C9.15018 0.774466 9.01421 0.799142 8.89193 0.857993H8.64154L8.28385 0.822291V0.965098C8.31962 0.965098 8.31962 0.965098 8.28385 0.965098V0.822291H8.24808C8.14077 0.750888 7.99769 0.715186 7.96192 0.608081H7.60423L7.13923 0.500977H6.96038L6.8173 0.608081H6.3523L6.24499 0.715186H6.13768C6.03037 0.643783 5.81575 0.679485 5.67268 0.643783H5.38652C5.27921 0.643783 5.20767 0.715186 5.24344 0.750888L5.31498 0.857993H5.63691C5.70845 0.857993 5.70845 0.893695 5.67268 0.929396H5.42229L5.35075 0.857993V0.965098H5.20767V1.0008H5.02883L4.81421 0.893695C4.66825 0.786814 4.49421 0.724775 4.31344 0.715186C4.2419 0.715186 4.13459 0.750888 4.13459 0.78659H4.38497L4.27767 0.965098C4.27767 1.0008 4.27767 1.0008 4.31344 1.0008H3.52651V1.0365L3.34766 0.965098C3.25508 0.932429 3.15408 0.932429 3.0615 0.965098H2.66804C2.56018 0.934579 2.44463 0.947393 2.34611 1.0008C2.20875 1.05054 2.0606 1.06286 1.91688 1.0365C1.88111 1.0008 1.88111 0.965098 1.98842 0.965098H1.91688V0.750888H1.98842C1.98842 0.78659 1.98842 0.822291 1.95265 0.857993L2.20304 0.822291L2.31034 0.750888C2.27458 0.679485 2.38188 0.643783 2.34611 0.57238H2.23881C2.16727 0.679485 2.1315 0.679485 1.98842 0.643783L1.55919 0.57238H1.16572L0.59341 0.679485L0.664949 1.1079V1.25071C0.736488 1.14361 0.808027 1.28641 0.879566 1.14361L1.12995 0.893695V0.929396L0.915335 1.14361L0.986874 1.21501C1.01462 1.23485 1.0361 1.2622 1.04878 1.29383C1.06145 1.32546 1.0648 1.36005 1.05841 1.39352C1.05947 1.47816 1.0474 1.56246 1.02264 1.64343C0.966655 1.74272 0.93023 1.85178 0.915335 1.96474V2.25036C0.915335 2.35746 0.879566 2.39316 0.808027 2.42886H0.736488C0.700718 2.42886 0.700718 2.50027 0.700718 2.57167V2.64307L0.772257 2.71448C0.782105 2.737 0.787188 2.76131 0.787188 2.78588C0.787188 2.81045 0.782105 2.83476 0.772257 2.85728C0.736488 2.92869 0.700718 2.96439 0.664949 2.96439C0.629179 2.96439 0.55764 3.00009 0.55764 3.1786C0.554648 3.20231 0.554648 3.2263 0.55764 3.25C0.55274 3.28554 0.55274 3.32157 0.55764 3.35711H0.59341L0.664949 3.25H0.700718C0.709805 3.28513 0.709805 3.32198 0.700718 3.35711C0.696482 3.40631 0.684407 3.45451 0.664949 3.49991C0.629179 3.60702 0.55764 3.67842 0.486101 3.67842V3.74983C0.521871 3.78553 0.55764 3.92833 0.59341 3.92833C0.629179 3.92833 0.629179 4.03544 0.629179 4.14254C0.629179 4.24965 0.664949 4.35675 0.736488 4.28535H0.843796C0.879566 4.32105 0.879566 4.32105 0.879566 4.49956C0.843796 4.49956 0.843796 4.53526 0.843796 4.60666V4.85658H0.736488C0.719098 4.7593 0.668551 4.67101 0.59341 4.60666H0.55764C0.553151 4.64223 0.553151 4.67821 0.55764 4.71377C0.574014 4.8041 0.610704 4.88955 0.664949 4.96368C0.680856 4.99715 0.689109 5.03374 0.689109 5.07079C0.689109 5.10783 0.680856 5.14442 0.664949 5.17789C0.63309 5.24452 0.620692 5.31876 0.629179 5.3921L0.808027 5.57061C0.772257 5.67771 0.736488 5.67771 0.700718 5.78482C0.688433 5.88724 0.651627 5.9852 0.59341 6.07043C0.55764 6.10613 0.55764 6.32034 0.59341 6.32034C0.629179 6.32034 0.700718 6.60596 0.808027 6.64166C0.915335 6.67736 0.843796 6.74876 0.808027 6.78446C0.772257 6.82017 0.772257 6.85587 0.736488 6.85587H0.700718C0.629179 6.82017 0.629179 6.82017 0.629179 6.99867H0.55764C0.521871 6.99867 0.521871 7.03438 0.521871 7.07008V7.03438L0.59341 6.92727L0.736488 7.21288V7.74841C0.743951 7.87158 0.719303 7.99459 0.664949 8.10542C0.629179 8.10542 0.664949 8.06972 0.664949 8.03402C0.664949 7.99832 0.664949 7.92692 0.629179 7.92692L0.55764 7.99832C0.486101 8.03402 0.450332 8.17683 0.521871 8.28393L0.629179 8.56955C0.630675 8.5814 0.630675 8.59339 0.629179 8.60525V8.67665L0.55764 8.60525C0.55764 8.56955 0.521871 8.56955 0.521871 8.60525C0.515867 8.6407 0.515867 8.6769 0.521871 8.71235C0.530706 8.76067 0.542654 8.80837 0.55764 8.85516C0.55764 8.89086 0.59341 8.96226 0.629179 8.92656L0.736488 8.85516C0.772257 8.81946 0.808027 8.78376 0.843796 8.81946C0.869681 8.84844 0.889374 8.88238 0.901675 8.91921C0.913975 8.95604 0.918623 8.99498 0.915335 9.03367L0.808027 9.17647C0.770966 9.24278 0.746699 9.31544 0.736488 9.39068H0.629179C0.59341 9.46209 0.629179 9.56919 0.59341 9.6406L0.521871 9.7477C0.510887 9.78256 0.510887 9.81994 0.521871 9.8548L0.664949 10.069H0.700718C0.772257 10.1047 0.772257 9.96191 0.808027 9.89051H0.915335C0.930075 9.99231 0.966679 10.0897 1.02264 10.1761C1.03249 10.1986 1.03757 10.2229 1.03757 10.2475C1.03757 10.2721 1.03249 10.2964 1.02264 10.3189L0.986874 10.4617H0.951105C0.9298 10.4936 0.917448 10.5306 0.915335 10.5688C0.91639 10.6535 0.904324 10.7378 0.879566 10.8187C0.860091 10.925 0.860091 11.0338 0.879566 11.1401L0.772257 10.9259C0.792145 10.8558 0.792145 10.7817 0.772257 10.7116C0.736488 10.6402 0.700718 10.5688 0.664949 10.5688C0.629179 10.5688 0.59341 10.6402 0.59341 10.7473C0.591766 10.7667 0.59409 10.7862 0.60024 10.8046C0.60639 10.823 0.616237 10.84 0.629179 10.8545H0.59341C0.609202 10.8743 0.620561 10.8974 0.626729 10.922C0.632897 10.9466 0.633732 10.9723 0.629179 10.9973V11.0687H0.521871V11.1401L0.629179 11.2829C0.664949 11.3186 0.664949 11.4971 0.59341 11.4971C0.521871 11.4971 0.450332 11.6399 0.450332 11.8184C0.450332 11.9969 0.450332 11.9612 0.486101 11.9255C0.521871 11.8898 0.55764 11.9255 0.59341 12.0326C0.629179 12.1397 0.59341 12.4253 0.664949 12.5681C0.671006 12.5915 0.671006 12.6161 0.664949 12.6395C0.657425 12.8671 0.633517 13.0938 0.59341 13.3179C0.581294 13.3647 0.581294 13.4138 0.59341 13.4607H0.629179C0.629179 13.5321 0.59341 13.5678 0.59341 13.6035L0.664949 13.6749V13.8534L0.736488 13.9962V14.1033C0.743254 14.1387 0.743254 14.175 0.736488 14.2104C0.736488 14.2877 0.711385 14.3628 0.664949 14.4246C0.629179 14.4603 0.59341 14.4603 0.55764 14.5317C0.521871 14.6031 0.521871 14.5317 0.521871 14.4603C0.510676 14.3636 0.522944 14.2657 0.55764 14.1747C0.59341 14.1033 0.55764 13.9962 0.521871 13.9605C0.486101 13.9248 0.450332 13.9605 0.414562 14.0319C0.331694 14.2615 0.283475 14.5022 0.271484 14.7459C0.271484 14.7816 0.271484 14.8173 0.307254 14.7816H0.486101V14.853C0.417834 14.9755 0.369538 15.1081 0.343023 15.2458V15.3529C0.343023 15.5314 0.378793 15.6385 0.450332 15.6742C0.521871 15.7099 0.486101 15.7813 0.486101 15.817L0.450332 16.174C0.478348 16.3394 0.478348 16.5084 0.450332 16.6738V16.7452C0.378793 16.888 0.378793 16.888 0.450332 16.9951C0.476349 17.0381 0.488813 17.0878 0.486101 17.1379C0.48237 17.1995 0.494693 17.261 0.521871 17.3164L0.59341 17.2093L0.700718 16.888C0.736488 16.8166 0.736488 16.8166 0.772257 16.888C0.808027 16.9594 0.808027 17.0665 0.808027 17.1379C0.811387 17.1736 0.811387 17.2094 0.808027 17.245C0.81403 17.2805 0.81403 17.3167 0.808027 17.3521C0.758828 17.426 0.733831 17.5134 0.736488 17.6021H0.664949C0.629179 17.495 0.59341 17.3521 0.521871 17.2807C0.55764 17.4593 0.521871 17.495 0.486101 17.5307H0.414562C0.389528 17.5528 0.370022 17.5805 0.357601 17.6115C0.34518 17.6424 0.340188 17.6759 0.343023 17.7092C0.343023 17.7449 0.343023 17.7806 0.378793 17.8163H0.450332C0.486101 17.8163 0.521871 17.8877 0.521871 17.9591C0.521871 18.0305 0.521871 18.1019 0.486101 18.1019C0.450332 18.1019 0.378793 18.0662 0.307254 18.209C0.293337 18.2556 0.293337 18.3052 0.307254 18.3518V18.4232C0.39129 18.5756 0.416728 18.7533 0.378793 18.923C0.378793 18.9944 0.378793 19.1015 0.343023 19.2086C0.374608 19.2484 0.397326 19.2945 0.409662 19.3437C0.421998 19.393 0.423669 19.4443 0.414562 19.4942V19.8156H0.450332C0.59341 19.887 0.629179 19.9584 0.664949 20.2797V20.3511L0.59341 20.244V20.4939C0.55764 20.601 0.55764 20.601 0.486101 20.6724H0.378793V20.7438L0.486101 20.8509H0.59341C0.59341 20.958 0.629179 20.9223 0.664949 20.958C0.629179 21.1008 0.629179 21.1008 0.55764 21.1008H0.521871C0.515592 21.1117 0.512286 21.124 0.512286 21.1365C0.512286 21.1491 0.515592 21.1614 0.521871 21.1722C0.557883 21.2876 0.570052 21.409 0.55764 21.5292H0.629179C0.648622 21.5339 0.66897 21.533 0.687929 21.5266C0.706888 21.5203 0.723706 21.5089 0.736488 21.4935V21.7077C0.664949 21.7435 0.629179 21.672 0.59341 21.7077C0.55764 21.7435 0.55764 21.7077 0.55764 21.5649C0.525689 21.6811 0.513596 21.8018 0.521871 21.922C0.521871 21.9497 0.515406 21.977 0.502989 22.0018C0.490572 22.0266 0.472544 22.0481 0.450332 22.0648C0.434969 22.0775 0.42348 22.0943 0.41716 22.1132C0.41084 22.1322 0.409941 22.1525 0.414562 22.1719L0.55764 22.3861L0.450332 22.4932L0.307254 22.6003C0.343023 22.7431 0.378793 22.8502 0.414562 22.8859C0.450332 22.9216 0.486101 22.9573 0.486101 23.0287H0.59341C0.596439 23.0404 0.596439 23.0527 0.59341 23.0644H0.521871V22.9573C0.497322 23.0266 0.497322 23.1022 0.521871 23.1715C0.581457 23.2821 0.617963 23.4035 0.629179 23.5285C0.629179 23.5285 0.664949 23.4928 0.664949 23.4571C0.64267 23.3371 0.655077 23.2133 0.700718 23.1001C0.727841 23.1148 0.751468 23.1352 0.769986 23.1598C0.788505 23.1845 0.80148 23.2128 0.808027 23.2429V23.3143C0.808027 23.35 0.843796 23.3143 0.843796 23.2786V23.0644L0.915335 23.1358C0.986874 23.2072 1.02264 23.1358 1.05841 23.0644L1.12995 23.2786C1.16394 23.3315 1.17671 23.3953 1.16572 23.4571C1.14219 23.6125 1.15443 23.7713 1.20149 23.9212C1.13704 24.1541 1.10101 24.3938 1.09418 24.6353H1.02264V24.3497H0.986874C0.915335 24.3497 0.879566 24.2783 0.843796 24.1712V23.707C0.843796 23.6713 0.808027 23.5999 0.808027 23.5999L0.736488 23.6713C0.734422 23.707 0.734422 23.7428 0.736488 23.7784V23.9927C0.734486 23.9808 0.734486 23.9688 0.736488 23.957H0.59341C0.609296 24.1197 0.657962 24.2776 0.736488 24.4211C0.749045 24.4428 0.755656 24.4674 0.755656 24.4925C0.755656 24.5175 0.749045 24.5422 0.736488 24.5639C0.700718 24.5996 0.664949 24.671 0.59341 24.5996C0.582745 24.5819 0.568367 24.5667 0.551265 24.5551C0.534163 24.5435 0.514744 24.5358 0.494345 24.5324C0.473947 24.529 0.453054 24.53 0.433105 24.5355C0.413157 24.5409 0.394627 24.5506 0.378793 24.5639V24.8138C0.378793 24.8852 0.378793 24.8495 0.414562 24.8852L0.486101 24.9566C0.496093 25.0382 0.533997 25.1139 0.59341 25.1708C0.615968 25.2079 0.630767 25.2492 0.636915 25.2921C0.643062 25.3351 0.640431 25.3788 0.629179 25.4207L0.55764 25.5992L0.414562 26.1705C0.410009 26.1954 0.410844 26.2211 0.417012 26.2457C0.423181 26.2703 0.43454 26.2934 0.450332 26.3133H0.486101C0.55764 26.3133 0.55764 26.3133 0.55764 26.4561C0.55764 26.5989 0.59341 26.6703 0.59341 26.7774L0.486101 26.8845C0.450033 26.9225 0.421958 26.9674 0.403529 27.0165C0.3851 27.0655 0.37669 27.1178 0.378793 27.1701V27.3486C0.378793 27.42 0.378793 27.4914 0.450332 27.4557C0.521871 27.42 0.521871 27.4557 0.55764 27.5271L0.629179 27.7056V27.9198H0.700718C0.715481 27.8252 0.715481 27.7289 0.700718 27.6342C0.700718 27.5628 0.736488 27.5271 0.736488 27.5271H0.772257C0.808027 27.5271 0.808027 27.5985 0.772257 27.6699V27.8127C0.772257 27.8841 0.808027 27.9555 0.808027 27.9198L0.951105 27.8127C0.921579 27.6235 0.921579 27.4308 0.951105 27.2415V26.8845C0.942018 26.8494 0.942018 26.8125 0.951105 26.7774H1.02264C1.05841 26.7774 1.05841 26.8131 1.05841 26.8845V27.2058C1.07526 27.3362 1.07526 27.4682 1.05841 27.5985C1.05379 27.6179 1.05469 27.6382 1.06101 27.6572C1.06733 27.6761 1.07882 27.6929 1.09418 27.7056H1.12995V28.2411C1.13285 28.3188 1.10744 28.3949 1.05841 28.4554C1.04262 28.4753 1.03126 28.4983 1.02509 28.5229C1.01893 28.5475 1.01809 28.5732 1.02264 28.5982V28.741C1.03321 28.7771 1.03548 28.8151 1.02929 28.8522C1.0231 28.8892 1.0086 28.9245 0.986874 28.9552L0.879566 28.8124L0.772257 29.0266V29.098C0.745257 29.2275 0.745257 29.3612 0.772257 29.4907C0.808027 29.6335 0.843796 29.7049 0.915335 29.6335L0.986874 29.5264H1.02264C1.0046 29.5723 0.992577 29.6203 0.986874 29.6692C1.0114 29.8827 1.0114 30.0983 0.986874 30.3118C0.986874 30.3832 0.951105 30.4904 0.879566 30.4904H0.843796V30.5618C0.914181 30.6798 0.939579 30.8192 0.915335 30.9545C0.915335 30.9902 0.879566 31.0259 0.879566 31.0616L0.986874 31.3829H1.05841C1.07136 31.3974 1.0812 31.4144 1.08735 31.4328C1.0935 31.4512 1.09583 31.4707 1.09418 31.49V31.5614C1.0683 31.5904 1.0486 31.6243 1.0363 31.6611C1.024 31.698 1.01936 31.7369 1.02264 31.7756C1.02552 31.9904 1.01357 32.2051 0.986874 32.4182L0.915335 32.5253C0.768131 32.8367 0.718274 33.185 0.772257 33.525V33.5964C0.772257 33.6321 0.736488 33.5964 0.700718 33.525V33.3108C0.700718 33.3822 0.700718 33.4893 0.664949 33.5607L0.59341 33.882L0.664949 34.239C0.664749 34.3707 0.676723 34.5022 0.700718 34.6317C0.709462 34.6789 0.709462 34.7273 0.700718 34.7745C0.664949 34.8817 0.664949 34.9531 0.629179 35.0602C0.622705 35.1553 0.622705 35.2507 0.629179 35.3458H0.700718V35.4529C0.702689 35.5868 0.726862 35.7195 0.772257 35.8456C0.795701 35.728 0.80768 35.6085 0.808027 35.4886C0.812263 35.4394 0.824338 35.3912 0.843796 35.3458C0.910755 35.2354 0.959092 35.1148 0.986874 34.9888H1.02264C1.02371 35.1813 1.04772 35.3731 1.09418 35.56C1.11354 35.7738 1.11354 35.9888 1.09418 36.2026H1.12995L1.52342 36.3097H1.70226L1.91688 36.2383H1.84534C1.91688 36.2026 1.91688 36.2383 1.91688 36.2383H2.02419C2.16727 36.3097 2.16727 36.3097 2.27458 36.2383L2.41765 36.1669L2.70381 36.274H3.0615C2.9542 36.3454 3.09727 36.3811 3.24035 36.3811C3.24035 36.3097 3.24035 36.274 3.34766 36.2026C3.39026 36.2281 3.43771 36.2444 3.48697 36.2505C3.53624 36.2567 3.58625 36.2525 3.63382 36.2383H3.99151C4.20613 36.3097 4.52805 36.274 4.67113 36.3811H5.02883L5.1719 36.3097C5.33767 36.2608 5.51555 36.2735 5.67268 36.3454L5.81575 36.4168H6.06614C6.28076 36.3811 6.31653 36.3811 6.42384 36.4525H7.53269V36.4168C7.53269 36.4168 7.53269 36.3454 7.60423 36.3454H7.74731L7.89038 36.4168H7.96192C8.05906 36.4738 8.17169 36.4987 8.28385 36.4882H9.21385C9.28539 36.5596 9.32116 36.5239 9.42847 36.4882H9.60732C9.6327 36.5085 9.66424 36.5196 9.69674 36.5196C9.72925 36.5196 9.76079 36.5085 9.78617 36.4882C9.84043 36.4589 9.90001 36.4406 9.96142 36.4345C10.0228 36.4283 10.0848 36.4345 10.1439 36.4525H10.2512L10.3585 36.3811H10.5016C10.6089 36.3811 10.6804 36.4168 10.6804 36.4525C10.6804 36.4882 10.7162 36.5239 10.8235 36.5239C10.9308 36.5239 11.0381 36.5596 11.1096 36.5596H11.5746C11.8695 36.498 12.174 36.498 12.4689 36.5596H12.7193L12.7908 36.4525C12.813 36.4275 12.8407 36.4081 12.8718 36.3957C12.9028 36.3833 12.9363 36.3783 12.9697 36.3811L13.1843 36.3097L13.3273 36.2383C13.4476 36.1734 13.5854 36.1484 13.7208 36.1669H13.9354C13.983 36.1811 14.033 36.1853 14.0823 36.1791C14.1315 36.173 14.179 36.1567 14.2216 36.1312C14.3613 36.0874 14.5111 36.0874 14.6508 36.1312C14.7224 36.1312 14.7224 36.2026 14.6866 36.2026H14.5077C14.5047 36.2263 14.5047 36.2503 14.5077 36.274C14.5077 36.3097 14.5793 36.3454 14.6508 36.3097L15.0443 36.2383H15.2589C15.406 36.2145 15.5568 36.2396 15.6881 36.3097H16.0816C16.1889 36.3454 16.2247 36.4168 16.3678 36.4168L16.6897 36.3097H18.2278C18.2635 36.274 18.3351 36.274 18.4066 36.3097H18.657L18.7285 36.2383H18.9074C19.3366 36.2026 19.7659 36.2026 20.1951 36.2026H20.2309C20.2666 36.2026 20.2309 36.2383 20.1951 36.2383C20.1593 36.2383 19.9805 36.3097 20.0878 36.3811C20.1951 36.4525 20.1235 36.4525 20.1235 36.4882H20.4455L20.5528 36.3811C20.5708 36.3353 20.5828 36.2873 20.5886 36.2383L20.7316 36.1669H20.8389L20.6601 36.0955H21.0536L21.1609 36.274C21.1966 36.3097 21.1609 36.3454 21.1609 36.3811H21.1966C21.1609 36.3811 21.1609 36.3454 21.1609 36.3454H20.8032C20.9802 36.381 21.1626 36.381 21.3397 36.3454C21.4112 36.274 21.5901 36.2383 21.5186 36.1312H21.5901L21.7689 36.0598C21.7663 36.0361 21.7663 36.0121 21.7689 35.9884C21.7689 35.9527 21.8047 35.917 21.8763 35.917H22.1266V36.1312H22.3055C22.1624 36.1312 22.1266 36.1669 22.1266 36.2383H22.7347C22.842 36.2383 22.9493 36.2383 23.0209 36.3097H23.0566C23.2933 36.3698 23.5426 36.3573 23.772 36.274H24.1297C24.2013 36.274 24.237 36.2383 24.2013 36.2026L24.1297 36.0955H24.3801C24.4874 36.0955 24.5232 36.1312 24.6305 36.1312V36.0598C24.6305 36.0241 24.6305 36.0241 24.6663 36.0241H24.702C24.7052 36.0295 24.7068 36.0357 24.7068 36.042C24.7068 36.0482 24.7052 36.0544 24.702 36.0598L24.6305 36.1312C24.7509 36.1154 24.8733 36.1276 24.9882 36.1669V36.3454H24.6663C24.702 36.4168 24.9167 36.4168 24.9167 36.4882H25.0955L25.489 36.5596H25.5963L25.6678 36.4168C25.632 36.3454 25.7036 36.3097 25.8109 36.3097L25.7036 36.2383L25.7751 36.1669H25.9897C25.9932 36.1432 25.9932 36.1192 25.9897 36.0955C25.9897 36.0598 25.9897 36.0598 26.0255 36.0598H26.1328C26.2405 36.0773 26.3404 36.1271 26.419 36.2026L26.5621 36.274L26.9198 36.3454H27.3848C27.5425 36.4152 27.713 36.4516 27.8855 36.4525C27.9928 36.4525 28.1001 36.4168 28.0644 36.3811L27.9928 36.1669C27.9928 36.1312 28.0286 36.0955 28.1359 36.0955C28.2432 36.0955 28.279 36.0955 28.279 36.1669C28.279 36.2383 28.279 36.274 28.4221 36.3097L28.6009 36.3811C28.6176 36.4033 28.6392 36.4213 28.664 36.4337C28.6888 36.4461 28.7162 36.4525 28.744 36.4525H29.4236L29.6025 36.3454C29.674 36.274 29.8171 36.3097 29.9244 36.3097H30.1748V36.3454C30.1748 36.3811 30.2463 36.4168 30.3894 36.3811H30.5682C30.5325 36.3454 30.604 36.3097 30.6755 36.274H30.8544C30.9259 36.3097 30.9617 36.3454 30.9259 36.3811V36.4525H31.0332L31.2479 36.3811C31.4858 36.3584 31.7253 36.3584 31.9632 36.3811L32.464 36.2026H32.7859C32.8933 36.2026 32.929 36.2383 32.8575 36.3097H32.8217C32.9204 36.3627 33.0318 36.3874 33.1436 36.3811C33.2509 36.3811 33.2867 36.4168 33.3225 36.4525C33.3551 36.4713 33.3921 36.4812 33.4298 36.4812C33.4675 36.4812 33.5045 36.4713 33.5371 36.4525H33.5729C33.6086 36.3811 33.7517 36.3097 33.9306 36.3454H34.2525C34.2525 36.4168 34.2883 36.4168 34.3956 36.4525C34.5768 36.452 34.7573 36.476 34.9321 36.5239H35.3256C35.2782 36.5283 35.2305 36.5207 35.1868 36.502C35.1431 36.4833 35.1047 36.454 35.0752 36.4168H35.2898L35.6117 36.5239C35.576 36.5239 35.576 36.5239 35.6117 36.5239C35.6475 36.5239 35.6117 36.5596 35.6117 36.5596H35.7548L36.041 36.4525H36.2198C36.3271 36.4525 36.3629 36.4168 36.3629 36.3811C36.3629 36.3454 36.3629 36.3097 36.2914 36.3097H36.0767C36.041 36.3097 36.041 36.274 36.0767 36.2383H35.8264L35.6117 36.3097H35.5402V36.274H35.8264C35.7215 36.2221 35.6071 36.1922 35.4902 36.1861C35.3734 36.1799 35.2565 36.1977 35.1467 36.2383L34.9321 36.1669C34.8423 36.1273 34.7428 36.1148 34.646 36.1312C34.5029 36.1312 34.4671 36.1669 34.4671 36.2383C34.4671 36.3097 34.4313 36.3097 34.3956 36.3097H34.2167C34.2525 36.274 34.2525 36.2383 34.1094 36.2026H36.3987V35.7028C36.4145 35.6829 36.4258 35.6599 36.432 35.6352C36.4381 35.6106 36.439 35.585 36.4344 35.56H36.3987V28.9552C36.4226 28.7894 36.4226 28.6211 36.3987 28.4554V23.5999H36.4344C36.4344 23.3857 36.4702 23.1715 36.4344 22.9573C36.4286 22.8811 36.404 22.8075 36.3629 22.7431V21.4221L36.4344 21.1008C36.4698 20.9731 36.4819 20.8401 36.4702 20.7081C36.4423 20.5068 36.4423 20.3025 36.4702 20.1012C36.4738 20.0298 36.4738 19.9583 36.4702 19.887C36.474 19.8022 36.4619 19.7174 36.4344 19.6371L36.3629 19.4942V18.5303L36.4344 18.3161C36.4628 18.236 36.4749 18.151 36.4702 18.0662C36.4812 17.8869 36.4692 17.7069 36.4344 17.5307C36.4114 17.413 36.3994 17.2935 36.3987 17.1736V15.8884C36.4293 15.7478 36.4414 15.6037 36.4344 15.46V14.7102L36.5417 14.2461V14.139C36.5042 14.0747 36.4815 14.0029 36.4753 13.9288C36.4692 13.8547 36.4796 13.7801 36.506 13.7106L36.5775 13.4607C36.6153 13.2843 36.6392 13.1052 36.649 12.9251V12.3539C36.6555 12.2588 36.6555 12.1634 36.649 12.0683C36.6341 11.9009 36.6462 11.7321 36.6848 11.5685C36.6902 11.533 36.6902 11.4969 36.6848 11.4614V11.39H36.649C36.6133 11.4257 36.6133 11.5328 36.5417 11.5328C36.5363 11.2942 36.5483 11.0556 36.5775 10.8187C36.583 10.7594 36.583 10.6996 36.5775 10.6402H36.3987V9.89051C36.4077 9.85538 36.4077 9.81853 36.3987 9.7834V8.53384C36.4928 8.39468 36.5539 8.23597 36.5775 8.06972C36.5555 7.99224 36.5191 7.91957 36.4702 7.85551L36.3987 7.74841V7.6056H36.4344C36.4702 7.6413 36.506 7.67701 36.5417 7.6413C36.5726 7.60826 36.5952 7.56839 36.6076 7.52494C36.6201 7.4815 36.622 7.43573 36.6133 7.39139C36.5871 7.16278 36.6115 6.93121 36.6848 6.71306C36.6908 6.66565 36.6908 6.61767 36.6848 6.57025H36.649C36.6307 6.55194 36.6176 6.52896 36.6113 6.50381C36.605 6.47865 36.6057 6.45225 36.6133 6.42745C36.6133 6.35604 36.6491 6.39175 36.6848 6.39175H36.7206C36.7206 6.24894 36.7206 6.10613 36.6848 5.96333C36.6491 5.82052 36.649 5.78482 36.649 5.71342C36.6439 5.6421 36.6439 5.57052 36.649 5.49921V5.03508L36.5417 4.67807C36.502 4.53802 36.502 4.3897 36.5417 4.24965L36.649 3.74983C36.6848 3.57132 36.6848 3.35711 36.7206 3.1429C36.7254 3.11934 36.7254 3.09505 36.7206 3.07149C36.7238 3.03586 36.7238 3.00002 36.7206 2.96439L36.6133 2.60737V2.92869C36.6133 2.82158 36.649 2.75018 36.649 2.64307V2.53597C36.6402 2.40118 36.6647 2.26629 36.7206 2.14325C36.7713 1.98158 36.7954 1.8128 36.7921 1.64343L36.7206 1.53632ZM0.843796 7.85551C0.843796 7.81981 0.879566 7.81981 0.879566 7.85551H0.843796ZM0.879566 8.28393C0.873287 8.27308 0.869981 8.26077 0.869981 8.24823C0.869981 8.2357 0.873287 8.22338 0.879566 8.21253H0.915335V8.28393H0.879566ZM0.736488 14.7459V14.8887H0.772257C0.773753 14.9006 0.773753 14.9126 0.772257 14.9244C0.736488 14.9244 0.736488 14.8887 0.736488 14.853V14.7459ZM0.736488 16.5667C0.732347 16.5311 0.732347 16.4952 0.736488 16.4596V16.3882V16.5667ZM0.772257 15.8527C0.736488 16.0312 0.700718 16.0669 0.629179 15.9241C0.623783 15.8886 0.623783 15.8525 0.629179 15.817L0.808027 15.7099C0.803791 15.7591 0.791716 15.8073 0.772257 15.8527ZM0.629179 25.9919C0.625177 25.9683 0.625177 25.9442 0.629179 25.9205C0.629179 25.8491 0.664949 25.8491 0.700718 25.8491V25.9205C0.700718 25.9919 0.664949 26.0633 0.629179 25.9919ZM0.879566 25.7063C0.879566 25.742 0.843796 25.7777 0.808027 25.742L0.736488 25.5992C0.728733 25.5639 0.728733 25.5274 0.736488 25.4921V25.4564H0.879566V25.7063ZM1.09418 26.5275H1.05841V26.4561C1.12995 26.4918 1.12995 26.5275 1.12995 26.5632L1.09418 26.5275ZM1.09418 26.0991C1.09418 26.0633 1.09418 26.0276 1.12995 26.0633C1.16572 26.1348 1.12995 26.1705 1.12995 26.1348L1.09418 26.0991ZM1.05841 34.4532H1.02264V34.3461C1.01815 34.3106 1.01815 34.2746 1.02264 34.239L1.09418 34.3104C1.09953 34.3608 1.08686 34.4113 1.05841 34.4532ZM34.9321 36.631H35.0752L34.9321 36.5596V36.631ZM34.8606 36.8095V36.8452H34.7175V36.8095H34.8606ZM29.2448 0.965098H29.0659C29.0301 1.0365 29.1375 1.0008 29.2448 1.0008V0.965098ZM18.5855 1.0722H19.1935C19.203 1.06747 19.214 1.06669 19.2241 1.07004C19.2341 1.07338 19.2425 1.08058 19.2472 1.09005C19.2519 1.09952 19.2527 1.11048 19.2494 1.12053C19.246 1.13057 19.2388 1.13887 19.2293 1.14361H18.5497V1.0722H18.5855ZM8.67731 1.0008H8.74885C8.87639 0.99817 9.00152 1.03564 9.10655 1.1079H8.67731C8.66789 1.09162 8.66294 1.07315 8.66294 1.05435C8.66294 1.03555 8.66789 1.01708 8.67731 1.0008ZM7.42538 0.857993H7.53269C7.56846 0.857993 7.60423 0.893695 7.56846 0.929396H7.42538L7.46115 0.893695L7.42538 0.857993ZM6.67422 0.750888H6.70999C6.67422 0.78659 6.63845 0.750888 6.67422 0.750888ZM6.70999 0.893695L6.3523 0.965098H6.31653C6.43142 0.885253 6.57039 0.847422 6.70999 0.857993V0.893695ZM5.49383 0.78659L5.92306 0.893695C5.92306 0.893695 5.95883 0.929396 5.92306 0.929396H5.74422L5.49383 0.78659ZM0.772257 18.3518C0.773252 18.3637 0.773252 18.3756 0.772257 18.3875H0.736488C0.772257 18.2804 0.772257 18.2804 0.772257 18.3518ZM0.59341 18.3518C0.595411 18.3636 0.595411 18.3757 0.59341 18.3875C0.629179 18.3161 0.629179 18.2804 0.629179 18.3518H0.59341ZM0.772257 20.9937C0.736488 21.1008 0.700718 21.0651 0.664949 20.9223C0.670301 20.872 0.657629 20.8214 0.629179 20.7795C0.700718 20.7081 0.700718 20.7081 0.736488 20.8866L0.808027 20.7081H0.843796C0.852883 20.7432 0.852883 20.7801 0.843796 20.8152C0.843796 20.8765 0.831639 20.9372 0.808027 20.9937H0.772257ZM0.879566 19.8156C0.808027 19.8156 0.808027 19.9227 0.772257 20.0298H0.736488C0.757464 19.8012 0.733156 19.5707 0.664949 19.3514L0.59341 19.2443H0.521871C0.486101 19.28 0.486101 19.2443 0.486101 19.1372V18.9944C0.55764 18.9587 0.629179 18.9587 0.664949 18.8873C0.700718 18.8159 0.772257 18.8873 0.843796 18.923C0.915335 18.9587 0.879566 18.9587 0.879566 19.1015V19.1729C0.843796 19.1015 0.808027 19.0658 0.808027 19.1015C0.79411 19.1481 0.79411 19.1977 0.808027 19.2443L0.915335 19.6728C0.915335 19.7085 0.951105 19.7085 0.986874 19.6728C0.951105 19.7085 0.951105 19.8156 0.915335 19.8156H0.879566ZM0.843796 18.3518V17.9591L0.986874 17.7806V18.1376C0.986874 18.2447 0.951105 18.3518 0.879566 18.3518H0.843796ZM0.915335 13.6035C0.879566 13.6749 0.843796 13.5678 0.843796 13.4964C0.827061 13.4259 0.827061 13.3526 0.843796 13.2822C0.860162 13.236 0.860162 13.1856 0.843796 13.1394V12.9608C0.808948 12.8202 0.808948 12.6731 0.843796 12.5324H0.879566V12.6038C0.879566 12.6752 0.915335 12.7109 0.951105 12.7109H0.986874C0.944095 12.8627 0.944095 13.0233 0.986874 13.1751L1.09418 13.4964C1.02264 13.4607 0.986874 13.5321 0.915335 13.6035ZM1.05841 7.42709L0.986874 7.4985C0.951105 7.4985 0.915335 7.39139 0.915335 7.31999C0.915335 7.24859 0.951105 7.24859 0.986874 7.24859L1.05841 7.31999C1.08686 7.36188 1.09953 7.41247 1.09418 7.4628L1.05841 7.42709ZM1.09418 3.42851C1.06307 3.37449 1.05051 3.31181 1.05841 3.25V3.1786C1.09757 3.2557 1.11014 3.34355 1.09418 3.42851ZM1.12995 21.0651C1.12367 21.0543 1.12037 21.042 1.12037 21.0294C1.12037 21.0169 1.12367 21.0046 1.12995 20.9937V21.1008V21.0651ZM1.09418 30.8474V30.776C1.09299 30.7641 1.09299 30.7521 1.09418 30.7403H1.16572V30.9188H1.09418V30.8474ZM1.12995 32.6325V32.561C1.1254 32.5361 1.12623 32.5104 1.1324 32.4858C1.13857 32.4612 1.14993 32.4381 1.16572 32.4182V32.6325H1.12995ZM8.64154 36.5596H8.42693C8.39116 36.5596 8.35539 36.5239 8.39116 36.4882H8.64154V36.5596ZM14.6508 36.3097H14.5435V36.274H14.6508V36.3097ZM15.4735 36.4882H15.1158V36.4168H15.402C15.4377 36.4525 15.4735 36.4882 15.4377 36.4882H15.4735ZM16.6181 36.4168C16.5466 36.5239 16.3678 36.5239 16.1889 36.5239H16.6181V36.4168ZM17.9416 36.5596H16.9043C16.8685 36.5239 16.9043 36.4882 17.0116 36.4525H17.9058L17.9416 36.5596ZM18.4782 36.4882L18.3708 36.5953H18.2278L18.2993 36.3811H18.4782C18.4424 36.4168 18.4782 36.4525 18.4424 36.4882H18.4782ZM20.0878 36.4882H19.9447C19.9447 36.4882 19.9089 36.4525 19.9447 36.4525H20.052L20.0878 36.4882ZM21.1966 36.3454H21.0893C21.0893 36.3097 21.0893 36.3097 21.1251 36.3097H21.1966V36.3454ZM24.9524 36.3097H24.8451C24.8093 36.274 24.8451 36.274 24.9167 36.2383H24.9524V36.3097ZM26.9913 36.4525C26.9555 36.3811 26.9913 36.3454 27.0986 36.3097L26.8124 36.3811V36.4882H26.7051C26.6336 36.3811 26.7409 36.3454 26.9555 36.3454H27.1344V36.5239L26.9913 36.4525ZM27.6351 36.3811H27.5636V36.3454H27.6351V36.3811ZM30.2105 36.3811C30.1748 36.3811 30.1748 36.3454 30.1748 36.3454H30.2105V36.3811ZM31.5698 36.4168C31.534 36.4168 31.4982 36.4168 31.534 36.3811H31.5698V36.4168ZM22.3055 36.274C22.3743 36.2462 22.4513 36.2462 22.5201 36.274H22.3055C22.1982 36.2383 22.1624 36.2383 22.1982 36.2026H22.3413V36.274H22.3055ZM36.3987 2.14325V1.92904H36.4344C36.4702 1.92904 36.506 2.00045 36.506 2.07185V2.17895L36.3987 2.14325ZM36.506 6.71306C36.5309 6.79451 36.5309 6.88152 36.506 6.96297H36.4702C36.3987 6.92727 36.3987 6.82017 36.3987 6.67736V6.60596L36.506 6.71306Z" fill="white"/>
<path d="M0.378242 24.3135C0.393796 24.2816 0.420747 24.2565 0.453823 24.2433C0.4869 24.2301 0.523723 24.2297 0.557089 24.2421H0.592859L0.664398 23.9565L0.48555 23.6352H0.414011L0.270933 23.6709C0.259949 23.7058 0.259949 23.7432 0.270933 23.778C0.270933 23.8494 0.306703 23.9208 0.342472 23.9208H0.449781C0.414011 24.0279 0.414011 24.2064 0.342472 24.2064V24.2778C0.306703 24.3135 0.342472 24.3492 0.378242 24.3135ZM3.38288 0.82186C3.49019 0.82186 3.52596 0.786159 3.52596 0.714755C3.52596 0.643352 3.52596 0.643352 3.41865 0.643352C3.37604 0.668799 3.3286 0.685115 3.27933 0.691262C3.23007 0.697408 3.18006 0.693251 3.13249 0.679054H2.98941C2.91787 0.714755 2.91787 0.786159 3.02518 0.82186C3.13249 0.857562 3.06095 0.857562 3.02518 0.893263C3.04879 0.870166 3.07676 0.851964 3.10745 0.839709C3.13815 0.827454 3.17097 0.821387 3.20403 0.82186H3.38288ZM1.52287 36.702C1.70171 36.7377 1.70171 36.7377 2.09518 36.702L1.84479 36.6306L1.52287 36.702ZM0.807475 2.10712H0.843245C0.838674 2.03579 0.838674 1.96424 0.843245 1.89291C0.859529 1.78068 0.834081 1.66638 0.771706 1.57159C0.803135 1.74827 0.815129 1.92784 0.807475 2.10712ZM19.6938 36.9519C19.658 36.9519 19.658 37.0233 19.7295 37.0233H19.6938V36.9519ZM28.5288 36.9162H28.4573L28.3857 37.0233H28.4573L28.6004 36.9519L28.5288 36.9162ZM0.879014 32.275C0.879014 32.2036 0.843245 32.2036 0.807475 32.2036C0.771706 32.2036 0.771706 32.2393 0.771706 32.275V32.5249C0.82842 32.4522 0.865381 32.3661 0.879014 32.275ZM0.807475 31.561C0.843245 31.6324 0.843245 31.8109 0.914784 31.7752L0.843245 31.561H0.807475ZM31.8196 36.8091H31.6765C31.6408 36.8091 31.605 36.8448 31.6408 36.8805H31.8912C31.9269 36.8805 31.8912 36.8448 31.8196 36.8091ZM19.4791 36.702C19.4076 36.702 19.3718 36.7377 19.4076 36.7377L19.5507 36.8091H19.5865C19.6222 36.8091 19.658 36.7377 19.658 36.7377H19.4791V36.702ZM13.0764 0.714755C13.1122 0.679054 13.1479 0.679054 13.0764 0.643352V0.714755ZM3.27557 0.464844H3.2398C3.20403 0.536247 3.31134 0.571949 3.45442 0.60765L3.34711 0.464844H3.27557ZM17.798 0.750457C17.8337 0.714755 17.8337 0.679054 17.798 0.643352H17.6191C17.6191 0.714755 17.7264 0.714755 17.798 0.750457ZM0.879014 29.9187V29.8473C0.843245 29.8473 0.843245 29.9187 0.843245 29.9544C0.843245 29.9901 0.879014 29.9544 0.879014 29.9187ZM17.2972 0.714755C17.333 0.714755 17.333 0.750457 17.2972 0.714755V0.714755ZM14.1495 36.6663C14.2415 36.7022 14.3436 36.7022 14.4356 36.6663H14.1495ZM37.0062 22.1C36.9704 22.0643 36.9704 22.0643 36.9704 22.1C36.9688 22.1194 36.9711 22.1389 36.9773 22.1573C36.9834 22.1757 36.9933 22.1927 37.0062 22.2071H37.042L37.0062 22.1ZM21.6611 36.9162H21.7326C21.8042 36.9162 21.8399 36.9162 21.8399 36.8448H21.7684L21.6611 36.9162ZM0.414011 21.743V21.6716H0.378242C0.373424 21.6952 0.373424 21.7195 0.378242 21.743C0.378242 21.8501 0.414011 21.8144 0.414011 21.743ZM36.6843 2.53554C36.6843 2.57124 36.72 2.57124 36.72 2.49984H36.6843C36.6833 2.51172 36.6833 2.52366 36.6843 2.53554ZM24.8803 0.714755H24.8088C24.773 0.714755 24.7373 0.750457 24.8088 0.786159L24.8803 0.714755ZM0.592859 33.3818H0.628628V33.3104H0.592859C0.592859 33.3461 0.557089 33.3818 0.592859 33.3818ZM36.4697 16.6377C36.4697 16.6734 36.5054 16.6734 36.5054 16.602H36.4697C36.4676 16.6138 36.4676 16.6259 36.4697 16.6377ZM0.950553 24.5277H0.986323C0.986323 24.5634 0.986323 24.5277 0.950553 24.5277ZM0.950553 31.918C0.952555 31.9062 0.952555 31.8941 0.950553 31.8823C0.914784 31.918 0.914784 31.918 0.950553 31.918ZM7.85406 36.5592C7.81829 36.5592 7.81829 36.5949 7.88983 36.5949H7.85406V36.5592ZM0.771706 35.988V35.9166C0.765427 35.9274 0.762122 35.9397 0.762122 35.9523C0.762122 35.9648 0.765427 35.9771 0.771706 35.988ZM25.8103 36.7377V36.8448C25.9177 36.7734 25.9177 36.7734 25.8103 36.7377ZM22.6984 36.8805C22.6626 36.9162 22.6984 36.9162 22.7342 36.9162H22.6984V36.8805ZM0.414011 13.246H0.449781C0.449781 13.2103 0.414011 13.1746 0.414011 13.246ZM3.2398 36.5949H3.27557C3.27557 36.5949 3.31134 36.5949 3.27557 36.5592H3.2398V36.5949ZM13.9706 36.702V36.6306H13.8633C13.7918 36.702 13.6487 36.6663 13.5056 36.6663H13.4341C13.4699 36.7377 13.4341 36.8091 13.5056 36.8448H13.8633V36.7734L13.9349 36.702H13.9706ZM19.2645 0.60765H19.2288C19.2645 0.643352 19.3003 0.643352 19.2645 0.60765ZM15.1868 36.7734L15.1153 36.702V36.7734H15.1868ZM15.008 36.8091H15.0795C15.008 36.7734 14.9722 36.7734 15.008 36.8091ZM0.52132 9.35455C0.535241 9.3202 0.535241 9.2818 0.52132 9.24745V9.35455ZM22.4838 36.8448C22.5196 36.8448 22.5196 36.8448 22.4838 36.8448V36.8448ZM0.48555 13.3174H0.449781C0.449781 13.3174 0.449781 13.3888 0.48555 13.3174Z" fill="white"/>
<path d="M26.8358 13.0366C29.1389 10.4689 27.4116 7.02344 27.4116 7.02344C26.4747 8.50975 24.6034 11.6182 22.3736 10.333C20.8871 9.47886 18.7018 9.45535 18.7018 9.45535C18.7018 9.45535 16.5165 9.47886 15.03 10.333C12.8002 11.6182 10.929 8.50975 9.99207 7.02344C9.99207 7.02344 8.26477 10.4689 10.5678 13.0366C10.5678 13.0366 8.147 13.0366 6.9248 14.186C6.9248 14.186 7.95595 17.2187 10.6202 17.4903C10.6202 17.4903 10.8557 20.8731 12.727 22.7669C12.727 22.7669 11.7508 26.6851 13.9099 27.7665L14.8154 28.2393C14.8154 28.2393 14.8861 30.5354 18.7018 30.5354C22.5176 30.5354 22.5882 28.2393 22.5882 28.2393L23.4938 27.7665C25.6529 26.6851 24.6767 22.7669 24.6767 22.7669C26.5479 20.8757 26.7835 17.4903 26.7835 17.4903C29.4477 17.2187 30.4789 14.1833 30.4789 14.1833C29.254 13.0366 26.8358 13.0366 26.8358 13.0366Z" fill="#110F0E"/>
<path d="M55.9331 20.2006C55.9331 20.4867 55.8955 20.7354 55.8202 20.9464C55.745 21.1574 55.6401 21.339 55.5057 21.491C55.3713 21.6431 55.2101 21.7665 55.0219 21.8613C54.8337 21.9561 54.6259 22.0312 54.3983 22.0866C54.1707 22.1421 53.9279 22.1805 53.6698 22.202C53.4118 22.2235 53.1448 22.2342 52.8688 22.2342H47.5088V14.8615H52.7719C52.9834 14.8615 53.1957 14.8705 53.409 14.8884C53.6222 14.9062 53.8256 14.9393 54.0192 14.9876C54.2127 15.0359 54.3928 15.103 54.5594 15.1888C54.7261 15.2747 54.8713 15.3874 54.9949 15.5269C55.1185 15.6664 55.2153 15.8345 55.2852 16.0313C55.3551 16.228 55.39 16.4605 55.39 16.7288C55.39 17.2082 55.2718 17.5883 55.0352 17.8691C54.7987 18.1499 54.4259 18.3368 53.917 18.4298C54.2754 18.4549 54.5827 18.5094 54.839 18.5935C55.0952 18.6775 55.304 18.792 55.4653 18.9369C55.6266 19.0818 55.7448 19.2589 55.8201 19.4681C55.8954 19.6774 55.9331 19.9215 55.9331 20.2006ZM53.444 17.0454C53.444 16.9524 53.4297 16.8638 53.401 16.7797C53.3724 16.6957 53.3204 16.6215 53.2451 16.5571C53.1699 16.4927 53.0677 16.4408 52.9387 16.4015C52.8097 16.3621 52.6448 16.3424 52.4441 16.3424H49.5033V17.7268H52.4441C52.6448 17.7268 52.8096 17.7089 52.9387 17.6732C53.0677 17.6374 53.1698 17.5891 53.2451 17.5283C53.3204 17.4675 53.3724 17.395 53.401 17.311C53.4297 17.2269 53.444 17.1384 53.444 17.0454ZM53.9062 19.9698C53.9062 19.8017 53.8775 19.6666 53.8202 19.5647C53.7628 19.4627 53.6732 19.384 53.5514 19.3286C53.4295 19.2732 53.2718 19.2365 53.0783 19.2186C52.8847 19.2007 52.6535 19.1918 52.3848 19.1918H49.5031V20.7532H52.3848C52.6536 20.7532 52.8847 20.7443 53.0783 20.7264C53.2718 20.7085 53.4295 20.671 53.5514 20.6137C53.6732 20.5565 53.7628 20.4769 53.8202 20.3749C53.8775 20.273 53.9062 20.1379 53.9062 19.9698ZM64.0276 20.8391H59.9095L59.216 22.2342H56.9903L60.8557 14.8615H63.0814L66.9468 22.2342H64.7211L64.0276 20.8391ZM60.6243 19.4009H63.3231L61.9791 16.6858L60.6243 19.4009ZM70.5036 17.6731L74.5895 14.8615H77.2614L72.2886 18.3976L77.5947 22.2342H74.6864L70.5039 19.1704V22.2342H68.4986V14.8615H70.5039L70.5036 17.6731ZM85.028 20.8391H80.9099L80.2164 22.2342H77.9907L81.8561 14.8615H84.0818L87.9471 22.2342H85.7215L85.028 20.8391ZM81.6247 19.4009H84.3235L82.9795 16.6858L81.6247 19.4009ZM91.4933 22.2342H89.4988V14.8615H94.4985C95.0361 14.8615 95.4921 14.917 95.8667 15.0279C96.2412 15.1388 96.5458 15.2962 96.7806 15.5001C97.0153 15.704 97.1856 15.9499 97.2913 16.2379C97.397 16.5258 97.4499 16.8469 97.4499 17.201C97.4499 17.5123 97.406 17.7842 97.3182 18.0167C97.2304 18.2492 97.1121 18.4486 96.9634 18.6149C96.8146 18.7813 96.6417 18.9217 96.4446 19.0362C96.2474 19.1506 96.0396 19.2454 95.821 19.3206L98.2402 22.2341H95.907L93.6705 19.519H91.4932L91.4933 22.2342ZM95.4341 17.1904C95.4341 17.0473 95.4153 16.9257 95.3776 16.8255C95.34 16.7254 95.2746 16.644 95.1814 16.5814C95.0882 16.5188 94.9637 16.4732 94.8078 16.4446C94.6519 16.416 94.4574 16.4016 94.2245 16.4016H91.4935V17.9792H94.2245C94.4574 17.9792 94.6519 17.9649 94.8078 17.9363C94.9637 17.9077 95.0882 17.862 95.1814 17.7994C95.2746 17.7368 95.34 17.6555 95.3776 17.5553C95.4153 17.4551 95.4341 17.3335 95.4341 17.1904ZM108.652 19.7498C108.652 20.1183 108.56 20.4652 108.378 20.7908C108.195 21.1163 107.921 21.4007 107.555 21.644C107.19 21.8872 106.733 22.0795 106.187 22.2208C105.64 22.3621 105.001 22.4327 104.27 22.4327C103.539 22.4327 102.899 22.3621 102.348 22.2208C101.798 22.0795 101.34 21.8872 100.975 21.644C100.609 21.4007 100.335 21.1163 100.152 20.7908C99.9695 20.4653 99.8781 20.1183 99.8781 19.7498V14.8615H101.867V19.0361C101.867 19.2829 101.899 19.5163 101.961 19.7363C102.024 19.9563 102.142 20.1486 102.316 20.3131C102.49 20.4777 102.734 20.6082 103.047 20.7048C103.361 20.8014 103.769 20.8497 104.27 20.8497C104.769 20.8497 105.174 20.8014 105.485 20.7048C105.797 20.6082 106.04 20.4777 106.214 20.3131C106.388 20.1486 106.505 19.9563 106.566 19.7363C106.627 19.5163 106.657 19.2829 106.657 19.0361V14.8615H108.652L108.652 19.7498ZM118.058 16.9382C117.918 16.8702 117.734 16.7933 117.504 16.7075C117.275 16.6216 117.015 16.5402 116.725 16.4633C116.434 16.3864 116.119 16.322 115.779 16.2701C115.438 16.2183 115.089 16.1923 114.73 16.1923C114.444 16.1923 114.199 16.2013 113.996 16.2192C113.794 16.2371 113.624 16.2603 113.486 16.2889C113.348 16.3175 113.238 16.3506 113.158 16.3882C113.077 16.4257 113.015 16.4642 112.972 16.5036C112.929 16.5429 112.902 16.5822 112.889 16.6216C112.876 16.6609 112.87 16.6967 112.87 16.7289C112.87 16.8362 112.924 16.9301 113.031 17.0106C113.139 17.0911 113.286 17.1627 113.472 17.2253C113.659 17.2879 113.875 17.3469 114.123 17.4023C114.37 17.4578 114.633 17.515 114.91 17.574C115.188 17.6331 115.475 17.6974 115.771 17.7672C116.066 17.837 116.353 17.9183 116.631 18.0114C116.908 18.1044 117.171 18.2126 117.418 18.336C117.666 18.4594 117.882 18.6034 118.069 18.7679C118.255 18.9325 118.402 19.1221 118.51 19.3367C118.617 19.5513 118.671 19.7964 118.671 20.0718C118.671 20.426 118.608 20.7301 118.483 20.984C118.357 21.238 118.19 21.4526 117.98 21.6279C117.77 21.8032 117.528 21.9436 117.252 22.0492C116.976 22.1547 116.686 22.2361 116.383 22.2933C116.081 22.3505 115.774 22.3881 115.464 22.406C115.154 22.4239 114.859 22.4328 114.58 22.4328C113.849 22.4328 113.172 22.3729 112.55 22.2531C111.928 22.1332 111.379 21.9839 110.903 21.805V20.045C111.394 20.3169 111.954 20.5297 112.583 20.6835C113.212 20.8374 113.884 20.9143 114.601 20.9143C115.024 20.9143 115.369 20.8919 115.636 20.8472C115.903 20.8025 116.112 20.7453 116.262 20.6755C116.413 20.6057 116.515 20.5297 116.569 20.4475C116.623 20.3652 116.65 20.2865 116.65 20.2114C116.65 20.0933 116.596 19.9905 116.488 19.9028C116.381 19.8152 116.234 19.7383 116.047 19.6721C115.861 19.6059 115.644 19.5451 115.397 19.4897C115.15 19.4342 114.887 19.3788 114.609 19.3233C114.332 19.2679 114.046 19.208 113.752 19.1436C113.458 19.0792 113.172 19.0032 112.894 18.9155C112.617 18.8279 112.354 18.7259 112.107 18.6097C111.86 18.4934 111.643 18.3557 111.456 18.1965C111.27 18.0373 111.123 17.8531 111.015 17.6438C110.908 17.4346 110.854 17.1922 110.854 16.9168C110.854 16.5912 110.912 16.3104 111.026 16.0743C111.141 15.8382 111.296 15.637 111.491 15.4707C111.687 15.3043 111.912 15.1693 112.169 15.0655C112.425 14.9618 112.695 14.8813 112.978 14.8241C113.261 14.7668 113.548 14.7275 113.838 14.706C114.128 14.6846 114.404 14.6738 114.666 14.6738C114.953 14.6738 115.247 14.6881 115.55 14.7168C115.853 14.7454 116.151 14.7856 116.445 14.8375C116.739 14.8894 117.023 14.9493 117.297 15.0172C117.572 15.0852 117.825 15.1568 118.058 15.2319L118.058 16.9382Z" fill="white"/>
</svg>
