<svg width="23" height="23" viewBox="0 0 23 23" fill="none" xmlns="http://www.w3.org/2000/svg">
<g id="fi_8066243">
<path id="Vector" fill-rule="evenodd" clip-rule="evenodd" d="M13.3379 15.3286L16.7211 18.5169L20.1043 15.3286C19.4592 14.6835 19.7399 14.9642 19.4592 14.6835C19.1785 14.4028 19.4592 14.6835 19.0879 14.3122L17.4398 15.9602V5.47656C16.7211 5.47656 17.118 5.47669 16.7211 5.47669C16.3242 5.47669 16.7211 5.47669 16.0023 5.47693V15.9602L14.3543 14.3122C13.983 14.6835 14.2637 14.4028 13.983 14.6835C13.7023 14.9642 13.983 14.6835 13.3379 15.3286Z" fill="#B5B5B4"/>
<path id="Vector_2" fill-rule="evenodd" clip-rule="evenodd" d="M10.0527 8.76706L6.66953 5.57884L3.28633 8.76706C3.93143 9.41217 3.65074 9.13148 3.93143 9.41217C4.21213 9.69287 3.93143 9.41217 4.30273 9.78347L5.95078 8.13552L5.95078 18.6191C6.66953 18.6191 6.27259 18.619 6.66953 18.619C7.06647 18.619 6.66953 18.619 7.38828 18.6188L7.38828 8.13552L9.03633 9.78347C9.40763 9.41217 9.12693 9.69287 9.40763 9.41217C9.68832 9.13148 9.40763 9.41217 10.0527 8.76706Z" fill="#B5B5B4"/>
</g>
</svg>
