<svg width="24" height="24" viewBox="0 0 24 24" fill="none" xmlns="http://www.w3.org/2000/svg">
<path d="M5.91 18V18.09H6H18H18.09V18V17.2C18.09 17.0008 18.04 16.8178 17.9393 16.6531C17.8397 16.4901 17.7076 16.3624 17.5437 16.2713L17.5437 16.2713L17.5402 16.2695C16.6347 15.8167 15.72 15.4768 14.7965 15.2501C13.8728 15.0234 12.9406 14.91 12 14.91C11.0594 14.91 10.1272 15.0234 9.20355 15.2501C8.27996 15.4768 7.36535 15.8167 6.45975 16.2695L6.45971 16.2694L6.45629 16.2713C6.29236 16.3624 6.16027 16.4901 6.0607 16.6531C5.96002 16.8178 5.91 17.0008 5.91 17.2V18ZM12 11.91C10.9241 11.91 10.0052 11.528 9.23864 10.7614C8.47205 9.99477 8.09 9.07594 8.09 8C8.09 6.92406 8.47205 6.00523 9.23864 5.23864C10.0052 4.47205 10.9241 4.09 12 4.09C13.0759 4.09 13.9948 4.47205 14.7614 5.23864C15.528 6.00523 15.91 6.92406 15.91 8C15.91 9.07594 15.528 9.99477 14.7614 10.7614C13.9948 11.528 13.0759 11.91 12 11.91ZM4.09 19.91V17.2C4.09 16.6497 4.23138 16.1452 4.5142 15.6846C4.7974 15.2234 5.17264 14.8725 5.64081 14.6302C6.66821 14.1166 7.71164 13.7316 8.77118 13.475C9.8309 13.2183 10.9071 13.09 12 13.09C13.0929 13.09 14.1691 13.2183 15.2288 13.475C16.2883 13.7316 17.3318 14.1166 18.3592 14.6302C18.8273 14.8725 19.2026 15.2234 19.4858 15.6846C19.7686 16.1452 19.91 16.6497 19.91 17.2V19.91H4.09ZM12 10.09C12.5741 10.09 13.0677 9.88455 13.4761 9.47614C13.8846 9.06773 14.09 8.57406 14.09 8C14.09 7.42594 13.8846 6.93227 13.4761 6.52386C13.0677 6.11545 12.5741 5.91 12 5.91C11.4259 5.91 10.9323 6.11545 10.5239 6.52386C10.1154 6.93227 9.91 7.42594 9.91 8C9.91 8.57406 10.1154 9.06773 10.5239 9.47614C10.9323 9.88455 11.4259 10.09 12 10.09Z" fill="white" stroke="#110F0E" stroke-width="0.18"/>
</svg>
