<svg width="24" height="24" viewBox="0 0 24 24" fill="none" xmlns="http://www.w3.org/2000/svg">
<path d="M19.4133 20.8232L15.7617 17.1716L15.6826 17.0925L15.5952 17.1624C15.0402 17.6065 14.4008 17.9589 13.6761 18.219C12.9538 18.4783 12.1843 18.6083 11.3667 18.6083C9.34015 18.6083 7.62968 17.9079 6.22756 16.5058C4.82543 15.1037 4.125 13.3932 4.125 11.3667C4.125 9.34015 4.82543 7.62968 6.22756 6.22756C7.62968 4.82543 9.34015 4.125 11.3667 4.125C13.3932 4.125 15.1037 4.82543 16.5058 6.22756C17.9079 7.62968 18.6083 9.34015 18.6083 11.3667C18.6083 12.1843 18.4783 12.9538 18.219 13.6761C17.9589 14.4008 17.6065 15.0402 17.1624 15.5952L17.0925 15.6826L17.1716 15.7617L20.8232 19.4133L19.4133 20.8232ZM11.3667 16.5917C12.8161 16.5917 14.0522 16.0829 15.0676 15.0676C16.0829 14.0522 16.5917 12.8161 16.5917 11.3667C16.5917 9.91723 16.0829 8.68115 15.0676 7.66578C14.0522 6.6504 12.8161 6.14167 11.3667 6.14167C9.91723 6.14167 8.68115 6.6504 7.66578 7.66578C6.6504 8.68115 6.14167 9.91723 6.14167 11.3667C6.14167 12.8161 6.6504 14.0522 7.66578 15.0676C8.68115 16.0829 9.91723 16.5917 11.3667 16.5917Z" fill="white" stroke="#110F0E" stroke-width="0.25"/>
</svg>
